<?xml version="1.0" encoding="UTF-8" standalone="no"?>
<!-- Created with Inkscape (http://www.inkscape.org/) -->

<svg
   xmlns:dc="http://purl.org/dc/elements/1.1/"
   xmlns:cc="http://creativecommons.org/ns#"
   xmlns:rdf="http://www.w3.org/1999/02/22-rdf-syntax-ns#"
   xmlns:svg="http://www.w3.org/2000/svg"
   xmlns="http://www.w3.org/2000/svg"
   xmlns:sodipodi="http://sodipodi.sourceforge.net/DTD/sodipodi-0.dtd"
   xmlns:inkscape="http://www.inkscape.org/namespaces/inkscape"
   width="720"
   height="64"
   id="svg2"
   version="1.1"
   inkscape:version="0.48.2 r9819"
   sodipodi:docname="bigo-boot-android.svg">
  <defs
     id="defs4" />
  <sodipodi:namedview
     id="base"
     pagecolor="#000000"
     bordercolor="#666666"
     borderopacity="1.0"
     inkscape:pageopacity="1"
     inkscape:pageshadow="2"
     inkscape:zoom="0.375"
     inkscape:cx="1405.7566"
     inkscape:cy="373.88147"
     inkscape:document-units="px"
     inkscape:current-layer="layer1"
     showgrid="false"
     inkscape:window-width="1680"
     inkscape:window-height="987"
     inkscape:window-x="-8"
     inkscape:window-y="-8"
     inkscape:window-maximized="1"
     inkscape:showpageshadow="false"
     inkscape:object-nodes="true"
     inkscape:snap-bbox="true"
     inkscape:bbox-paths="true">
    <inkscape:grid
       type="xygrid"
       id="grid2985"
       empspacing="4"
       visible="true"
       enabled="true"
       snapvisiblegridlinesonly="true"
       dotted="false"
       spacingy="1px"
       spacingx="1px" />
  </sodipodi:namedview>
  <metadata
     id="metadata7">
    <rdf:RDF>
      <cc:Work
         rdf:about="">
        <dc:format>image/svg+xml</dc:format>
        <dc:type
           rdf:resource="http://purl.org/dc/dcmitype/StillImage" />
        <dc:title />
      </cc:Work>
    </rdf:RDF>
  </metadata>
  <g
     inkscape:label="Layer 1"
     inkscape:groupmode="layer"
     id="layer1"
     transform="translate(-722.91962,-988.3622)">
	<rect
       height="64"
	   width="720"
	   transform="translate(722.91962,988.3622)"
	   style="fill:#000000;fill-opacity:1;"
	   x="0" y="0"
	/>
    <g
       transform="translate($TEXT_X_POSITION,0)"
       style="font-size:76.83316803px;font-style:normal;font-variant:normal;font-weight:300;font-stretch:normal;line-height:125%;letter-spacing:5px;word-spacing:0px;fill:#ffffff;opacity:$TEXT_OPACITY;stroke:none;font-family:ITC Garamond Std Lt;-inkscape-font-specification:ITC Garamond Std Lt Light"
       id="text4140">
      <path
         d="M 764.79316,1033.0731 C 764.82993,1032.7962 764.77551,1032.5625 764.62989,1032.372 764.48418,1032.1816 764.25689,1032.0823 763.94801,1032.0743 763.47737,1032.1271 762.99717,1032.6938 762.5074,1033.7742 762.01756,1034.8547 761.34527,1036.132 760.49056,1037.6062 759.56693,1039.2565 758.20636,1040.7387 756.40885,1042.0529 754.61126,1043.367 752.15583,1044.0617 749.04256,1044.1369 743.4658,1043.9241 738.88789,1041.5647 735.30881,1037.0588 731.7297,1032.5529 729.87933,1027.1779 729.75769,1020.9336 729.75448,1014.9504 731.35514,1009.745 734.5597,1005.3175 737.76422,1000.8901 742.59184,998.5659 749.04256,998.34497 752.03899,998.40264 754.40157,998.94046 756.13033,999.95844 757.85902,1000.9765 759.18437,1002.129 760.1064,1003.4159 760.99473,1004.6565 761.67661,1005.7481 762.15205,1006.6909 762.62741,1007.6337 763.09801,1008.1299 763.56385,1008.1795 763.86793,1008.1763 764.08562,1008.0867 764.21692,1007.9106 764.34813,1007.7345 764.41215,1007.4912 764.409,1007.1807 764.39615,1006.6749 764.32572,1005.9386 764.19771,1004.9717 764.06961,1004.005 763.96077,1003.0766 763.87117,1002.1866 763.8007,1000.9957 763.65344,1000.1314 763.42939,999.59349 763.20525,999.05571 762.63541,998.61393 761.71987,998.26814 759.9847,997.67753 757.98067,997.18773 755.70775,996.79872 753.43477,996.40981 751.39232,996.20812 749.58039,996.19367 742.31813,996.33938 736.11713,998.69876 730.9774,1003.2718 725.83764,1007.845 723.15172,1013.7579 722.91962,1021.0105 723.09249,1028.0102 725.53191,1033.9103 730.23789,1038.7107 734.94384,1043.5111 740.87912,1046.0113 748.04375,1046.2114 750.55837,1046.2114 752.94336,1045.9425 755.19874,1045.4047 757.45405,1044.8669 759.70459,1044.0601 761.95037,1042.9845 763.0852,1042.4755 763.77349,1042.0145 764.01524,1041.6015 764.25689,1041.1885 764.38815,1040.4202 764.409,1039.2965 z"
         style="fill:#ffffff"
         id="path4743"
         inkscape:connector-curvature="0" />
      <path
         d="M 799.76913,1027.8485 C 801.48022,1027.7669 802.53346,1027.9302 802.92885,1028.3383 803.32419,1028.7465 803.85881,1029.8894 804.53272,1031.767 805.01609,1032.8586 805.70118,1034.4593 806.58798,1036.569 807.47472,1038.6787 807.96773,1040.2793 808.067,1041.371 807.98694,1042.4755 807.4171,1043.1477 806.35749,1043.3878 805.29781,1043.6279 804.22856,1043.724 803.14974,1043.676 802.72073,1043.6519 802.25334,1043.7 801.74756,1043.82 801.24172,1043.9401 800.9664,1044.2762 800.92161,1044.8284 800.94399,1045.163 801.09125,1045.3775 801.3634,1045.4719 801.63548,1045.5663 801.89799,1045.608 802.15093,1045.5968 803.57714,1045.584 805.00816,1045.5327 806.44401,1045.4431 807.87979,1045.3535 809.29158,1045.3022 810.6794,1045.2894 812.36968,1045.3022 814.05999,1045.3535 815.75034,1045.4431 817.44061,1045.5327 819.13092,1045.584 820.82128,1045.5968 821.03726,1045.608 821.27732,1045.5663 821.54146,1045.4719 821.80551,1045.3775 821.94957,1045.163 821.97363,1044.8284 821.92876,1044.2762 821.65345,1043.9401 821.14768,1043.82 820.64182,1043.7 820.17443,1043.6519 819.7455,1043.676 817.91268,1043.5527 816.54571,1042.6851 815.64458,1041.0733 814.74336,1039.4614 814.01025,1037.8447 813.44526,1036.2232 810.86814,1029.8046 808.28146,1023.3763 805.68521,1016.9384 803.08889,1010.5005 800.50221,1004.0722 797.92516,997.65348 797.8579,997.39101 797.74265,997.09009 797.57941,996.7507 797.41612,996.41141 797.14721,996.22573 796.77267,996.19367 796.39969,996.22573 796.12758,996.43062 795.95633,996.80832 795.78504,997.18613 795.64738,997.54468 795.54336,997.88397 795.35126,998.38023 795.15917,998.86683 794.96712,999.34379 794.77501,999.82083 794.58293,1000.3074 794.39088,1000.8036 792.12111,1006.7229 789.84175,1012.6518 787.55281,1018.5902 785.26384,1024.5288 782.98449,1030.4576 780.71475,1036.3769 779.56866,1039.6391 778.55704,1041.7007 777.67988,1042.5619 776.8027,1043.423 775.56059,1043.7944 773.95352,1043.676 773.56135,1043.6551 773.11636,1043.6968 772.61856,1043.8008 772.12075,1043.9049 771.84863,1044.1962 771.80222,1044.6748 771.81662,1045.0493 771.96068,1045.299 772.2344,1045.4239 772.50811,1045.5487 772.82504,1045.6064 773.18519,1045.5968 773.97753,1045.584 775.29328,1045.5327 777.13246,1045.4431 778.97163,1045.3535 780.26818,1045.3022 781.0221,1045.2894 781.80962,1045.3022 782.88528,1045.3535 784.24906,1045.4431 785.61282,1045.5327 786.68848,1045.584 787.47602,1045.5968 787.88896,1045.616 788.29232,1045.5775 788.68609,1045.4815 789.07984,1045.3855 789.29112,1045.1166 789.31995,1044.6748 789.29273,1044.2298 789.09744,1043.9481 788.73411,1043.8296 788.37074,1043.7112 788.00258,1043.6599 787.62964,1043.676 786.76367,1043.7336 785.67201,1043.6183 784.35467,1043.3302 783.03731,1043.0421 782.31061,1042.2354 782.17456,1040.91 782.25778,1039.6007 782.70597,1037.936 783.51912,1035.9159 784.33225,1033.8959 785.01093,1032.2312 785.55518,1030.9218 786.1122,1029.4492 786.55398,1028.5528 786.88053,1028.2327 787.20705,1027.9126 787.76409,1027.7845 788.55163,1027.8485 z M 789.47362,1025.5436 C 789.03662,1025.5532 788.66206,1025.534 788.34994,1025.4859 788.0378,1025.4379 787.87453,1025.3035 787.86014,1025.0826 787.86493,1024.9577 787.89374,1024.8041 787.94658,1024.6216 787.99938,1024.4391 788.0474,1024.2855 788.09064,1024.1606 788.96939,1021.8204 789.84335,1019.4898 790.71254,1017.1689 791.58168,1014.8479 792.47485,1012.5173 793.39206,1010.1771 793.55211,1009.745 793.75059,1009.2648 793.98751,1008.7365 794.22439,1008.2083 794.46128,1007.9202 794.69821,1007.8722 794.90307,1007.9298 795.12716,1008.2371 795.37049,1008.7941 795.61377,1009.3512 795.79944,1009.8122 795.92752,1010.1771 796.77425,1012.3973 797.63541,1014.5838 798.511,1016.7367 799.38654,1018.8896 800.26691,1021.0569 801.15211,1023.2386 801.17449,1023.3571 801.26413,1023.6196 801.42102,1024.0261 801.57786,1024.4327 801.66749,1024.7336 801.68993,1024.9289 801.69791,1025.2234 801.52824,1025.4027 801.18092,1025.4667 800.83355,1025.5308 800.26051,1025.5564 799.4618,1025.5436 z"
         style="fill:#ffffff"
         id="path4745"
         inkscape:connector-curvature="0" />
      <path
         d="M 860.52111,1031.306 C 860.42984,1027.6389 859.30617,1024.7352 857.1501,1022.5951 854.99397,1020.4551 852.35287,1018.7231 849.22678,1017.3993 846.48161,1016.3942 843.61642,1015.0432 840.63118,1013.3465 837.64592,1011.6498 836.02925,1009.1847 835.78115,1005.9514 835.87718,1003.155 836.89521,1001.0838 838.83523,999.73755 840.77523,998.39143 843.06098,997.72235 845.6925,997.73031 848.44243,997.72876 850.62574,998.40424 852.24245,999.75676 853.8591,1001.1094 855.00517,1003.1486 855.68069,1005.8745 855.75109,1006.2171 855.87914,1006.5885 856.06485,1006.9886 856.25049,1007.3888 856.53221,1007.6065 856.91,1007.6417 857.18048,1007.6369 857.38857,1007.5505 857.53426,1007.3824 857.67989,1007.2143 857.75352,1006.9934 857.75515,1006.7197 857.71351,1005.7209 857.66229,1004.7221 857.60149,1003.7232 857.54063,1002.7244 857.48941,1001.7256 857.44783,1000.7268 857.44779,1000.0369 857.39017,999.45748 857.27495,998.98844 857.15967,998.51949 856.75631,998.15133 856.06485,997.88397 854.57939,997.30938 852.88269,996.8836 850.97471,996.60664 849.06669,996.32977 847.33157,996.19211 845.76933,996.19367 841.85728,996.23053 838.44465,997.38621 835.53144,999.66072 832.61822,1001.9353 831.08798,1005.1078 830.94072,1009.1783 831.04957,1012.5445 832.19565,1015.1856 834.37896,1017.1016 836.56227,1019.0177 839.12974,1020.5255 842.08139,1021.6251 842.73445,1021.8973 843.38752,1022.179 844.04061,1022.4703 844.69366,1022.7616 845.34674,1023.0433 845.99983,1023.3154 848.70974,1024.3495 850.93467,1025.7581 852.67463,1027.5412 854.41453,1029.3244 855.3141,1031.7318 855.37336,1034.7634 855.25648,1037.8351 854.06878,1040.2585 851.81026,1042.0337 849.55169,1043.8088 846.9234,1044.7148 843.92536,1044.7516 841.05054,1044.7308 838.65594,1044.0041 836.74155,1042.5715 834.82714,1041.1389 833.58502,1039.1253 833.01519,1036.5306 832.8167,1035.3445 832.63743,1034.2208 832.47737,1033.1595 832.3173,1032.0983 831.98436,1031.5317 831.47855,1031.4596 831.10239,1031.4564 830.83667,1031.5781 830.68141,1031.8246 830.52614,1032.0711 830.43331,1032.4617 830.4029,1032.9963 830.32606,1034.0879 830.26844,1035.2468 830.23002,1036.4729 830.1916,1037.6991 830.1724,1038.8964 830.1724,1040.0648 830.15479,1040.6955 830.20921,1041.2974 830.33567,1041.8704 830.46212,1042.4434 830.76625,1042.8916 831.24805,1043.215 832.90794,1044.1802 834.77432,1044.9197 836.8472,1045.4335 838.92006,1045.9473 840.92089,1046.2066 842.84971,1046.2114 848.66172,1046.0305 853.05716,1044.4331 856.03603,1041.419 859.01485,1038.405 860.50987,1035.0596 860.52111,1031.3828 z"
         style="fill:#ffffff"
         id="path4747"
         inkscape:connector-curvature="0" />
      <path
         d="M 888.06943,1037.2989 C 888.17345,1039.9848 887.96536,1041.7391 887.44516,1042.5619 886.92493,1043.3846 885.46832,1043.756 883.07534,1043.676 882.59192,1043.6567 882.15654,1043.6952 881.76919,1043.7912 881.38181,1043.8872 881.17693,1044.1562 881.15453,1044.5979 881.16572,1045.0093 881.29698,1045.2814 881.5483,1045.4143 881.79959,1045.5471 882.10372,1045.608 882.46068,1045.5968 883.9205,1045.584 885.38032,1045.5327 886.84016,1045.4431 888.29996,1045.3535 889.75977,1045.3022 891.21961,1045.2894 892.673,1045.3022 894.1072,1045.3535 895.52222,1045.4431 896.93719,1045.5327 898.37139,1045.584 899.82484,1045.5968 900.18171,1045.608 900.48581,1045.5471 900.73714,1045.4143 900.98841,1045.2814 901.11966,1045.0093 901.1309,1044.5979 901.10365,1044.1898 900.90837,1043.9305 900.54505,1043.82 900.18167,1043.7096 899.81351,1043.6615 899.44059,1043.676 896.9003,1043.7608 895.35405,1043.399 894.80184,1042.5907 894.24959,1041.7824 894.0287,1040.0184 894.13917,1037.2989 L 894.13917,1003.2622 C 894.08152,1001.5255 894.19677,1000.4467 894.48491,1000.0257 894.77301,999.60474 895.57974,999.42867 896.90513,999.49745 L 902.05288,999.49745 C 904.94526,999.44788 906.88207,999.95049 907.86332,1001.0053 908.84449,1002.0602 909.72485,1003.965 910.50442,1006.7197 910.57321,1006.9662 910.66605,1007.2031 910.78294,1007.4304 910.89975,1007.6577 911.08863,1007.7794 911.34958,1007.7953 911.7577,1007.7794 912.01701,1007.6385 912.1275,1007.3727 912.23791,1007.1071 912.28593,1006.8126 912.27156,1006.4892 912.42518,1003.3263 912.57885,1000.2018 912.73256,997.11565 912.73571,996.99405 912.74852,996.81477 912.77097,996.57783 912.79334,996.34098 912.80614,996.08487 912.80939,995.80951 912.81575,995.4462 912.76453,995.11646 912.65572,994.82029 912.54683,994.52422 912.34195,994.36735 912.04107,994.34969 911.67127,994.36575 911.41196,994.50661 911.26314,994.77227 911.11424,995.03803 910.98938,995.33256 910.88858,995.65584 910.61643,996.50265 910.14263,997.01806 909.46719,997.20209 908.79166,997.38621 907.70321,997.45984 906.20182,997.42298 L 876.92876,997.42298 C 875.56658,997.39742 874.71823,997.16052 874.3837,996.71228 874.04915,996.26414 873.87308,995.75833 873.85547,995.19485 873.85547,994.958 873.79784,994.75951 873.6826,994.5994 873.56735,994.43938 873.39447,994.35615 873.16398,994.34969 872.82944,994.36095 872.59574,994.473 872.46289,994.68583 872.33003,994.89877 872.23079,995.14528 872.16517,995.42534 871.16635,998.71637 870.16753,1002.0458 869.16871,1005.4135 869.08227,1005.6249 868.98623,1005.913 868.88059,1006.2779 868.77495,1006.6429 868.71732,1006.9694 868.70772,1007.2575 868.70612,1007.5313 868.76694,1007.7521 868.89019,1007.9202 869.01345,1008.0883 869.20873,1008.1747 869.47604,1008.1795 869.8634,1008.1363 870.20274,1007.8962 870.49406,1007.4592 870.78538,1007.0222 871.00948,1006.6477 871.16635,1006.3355 872.98631,1003.1902 874.95513,1001.2214 877.07282,1000.429 879.1905,999.63675 882.29259,999.30061 886.37912,999.42062 886.95374,999.39185 887.37952,999.52631 887.65645,999.82399 887.93335,1000.1218 888.07101,1000.7556 888.06943,1001.7256 z"
         style="fill:#ffffff"
         id="path4749"
         inkscape:connector-curvature="0" />
      <path
         d="M 962.86986,1005.7977 C 962.76581,1003.115 962.97389,1001.3735 963.49413,1000.5731 964.01433,999.77281 965.47094,999.41426 967.86395,999.49745 968.2497,999.5183 968.66907,999.47669 969.12208,999.3726 969.57505,999.2686 969.82155,998.97728 969.86159,998.49863 969.85036,998.0841 969.71911,997.79919 969.46783,997.64387 969.2165,997.48866 968.91237,997.41503 968.55544,997.42298 967.09564,997.43577 965.63584,997.48695 964.17605,997.57653 962.71622,997.6662 961.25641,997.71742 959.79661,997.73018 958.34318,997.71742 956.90898,997.6662 955.49399,997.57651 954.07899,997.48692 952.64479,997.4357 951.19138,997.42285 950.80081,997.41496 950.48708,997.48862 950.25018,997.64386 950.01328,997.79918 949.89163,998.08411 949.88523,998.49863 949.92204,998.97728 950.15574,999.2686 950.58632,999.3726 951.0169,999.47669 951.42347,999.5183 951.80603,999.49745 954.19903,999.41426 955.65563,999.77281 956.17586,1000.5731 956.69607,1001.3735 956.90415,1003.115 956.80012,1005.7977 L 956.80012,1037.2989 C 956.90415,1039.9848 956.69607,1041.7391 956.17586,1042.5619 955.65563,1043.3846 954.19902,1043.756 951.80603,1043.676 951.32263,1043.6567 950.88724,1043.6952 950.49988,1043.7912 950.11252,1043.8872 949.90763,1044.1562 949.88523,1044.5979 949.89643,1045.0093 950.02768,1045.2814 950.27899,1045.4143 950.53029,1045.5471 950.83442,1045.608 951.19137,1045.5968 952.65119,1045.584 954.111,1045.5327 955.57083,1045.4431 957.03063,1045.3535 958.49045,1045.3022 959.95027,1045.2894 961.40367,1045.3022 962.83788,1045.3535 964.25289,1045.4431 965.66787,1045.5327 967.10207,1045.584 968.5555,1045.5968 968.9124,1045.608 969.21651,1045.5471 969.46783,1045.4143 969.71911,1045.2814 969.85036,1045.0093 969.86159,1044.5979 969.83436,1044.1898 969.63908,1043.9305 969.27575,1043.82 968.91237,1043.7096 968.54422,1043.6615 968.17128,1043.676 965.631,1043.7512 964.08475,1043.3702 963.53254,1042.5331 962.98029,1041.6959 962.7594,1039.9512 962.86986,1037.2989 z"
         style="fill:#ffffff"
         id="path4751"
         inkscape:connector-curvature="0" />
      <path
         d="M 986.41073,1037.2989 C 986.51477,1039.9512 986.30668,1041.6959 985.78647,1042.5331 985.26624,1043.3702 983.80964,1043.7512 981.41664,1043.676 980.69473,1043.6599 980.17932,1043.692 979.87039,1043.772 979.56146,1043.852 979.411,1044.0761 979.419,1044.4443 979.42861,1044.862 979.56306,1045.1598 979.82237,1045.3374 980.08168,1045.5151 980.40822,1045.6016 980.80198,1045.5968 981.92086,1045.584 983.04453,1045.5327 984.17301,1045.4431 985.30148,1045.3535 986.40595,1045.3022 987.48641,1045.2894 988.63248,1045.3022 989.75936,1045.3535 990.86704,1045.4431 991.97469,1045.5327 993.10156,1045.584 994.24766,1045.5968 994.63818,1045.6016 994.9519,1045.5151 995.18881,1045.3374 995.42569,1045.1598 995.54734,1044.862 995.55376,1044.4443 995.54414,1044.1097 995.42889,1043.8952 995.20802,1043.8008 994.9871,1043.7064 994.71819,1043.6647 994.40128,1043.676 991.64011,1043.7752 989.9594,1043.4423 989.35917,1042.6771 988.7589,1041.912 988.5188,1040.1193 988.63887,1037.2989 L 988.63887,1004.5684 988.63887,1002.5707 C 988.81973,1002.7645 989.11105,1003.1262 989.51283,1003.656 989.91459,1004.1859 990.26353,1004.6436 990.55967,1005.0294 994.9807,1010.787 999.41136,1016.5398 1003.8516,1022.2878 1008.2919,1028.0358 1012.7225,1033.8078 1017.1436,1039.6038 1017.7614,1040.4138 1018.3889,1041.2333 1019.026,1042.0625 1019.663,1042.8916 1020.2905,1043.7112 1020.9084,1044.5211 1021.1036,1044.8669 1021.3661,1045.251 1021.6959,1045.6736 1022.0256,1046.0962 1022.4034,1046.3267 1022.8292,1046.3651 1023.0868,1046.3715 1023.2437,1046.2626 1023.2998,1046.0385 1023.3558,1045.8144 1023.3782,1045.4367 1023.367,1044.9053 L 1023.367,1005.8745 C 1023.2629,1003.2895 1023.471,1001.564 1023.9913,1000.698 1024.5114,999.83203 1025.9681,999.43187 1028.3611,999.49745 1028.7804,999.5151 1029.2094,999.47989 1029.648,999.39181 1030.0866,999.30381 1030.3235,999.05731 1030.3587,998.6523 1030.3475,998.23137 1030.2162,997.92084 1029.965,997.72071 1029.7136,997.52067 1029.4095,997.42143 1029.0526,997.42298 1027.9433,997.43577 1026.8389,997.48695 1025.7393,997.57653 1024.6396,997.6662 1023.516,997.71742 1022.3683,997.73018 1021.2222,997.71742 1020.0953,997.6662 1018.9877,997.57651 1017.88,997.48692 1016.7531,997.4357 1015.6071,997.42285 1015.2132,997.42136 1014.8866,997.52064 1014.6274,997.72069 1014.368,997.92083 1014.2335,998.23137 1014.224,998.6523 1014.2608,999.05731 1014.4945,999.30381 1014.9251,999.3918 1015.3556,999.47989 1015.7622,999.5151 1016.1448,999.49745 1018.5746,999.42707 1020.0536,999.81763 1020.5818,1000.6691 1021.11,1001.5207 1021.3213,1003.2559 1021.2157,1005.8745 L 1021.2157,1034.3793 1021.2157,1035.3781 C 1020.7931,1034.8371 1020.3705,1034.2864 1019.948,1033.7262 1019.5254,1033.166 1019.1028,1032.6153 1018.6802,1032.0743 1014.5265,1026.7761 1010.3871,1021.4683 1006.2622,1016.1508 1002.1373,1010.8334 998.05559,1005.4872 994.01712,1000.1121 993.56411,999.46228 993.08711,998.86043 992.58612,998.30655 992.08509,997.75276 991.51205,997.45824 990.867,997.42298 990.21233,997.42937 989.42801,997.45494 988.51404,997.4997 987.60005,997.54455 986.79651,997.57016 986.10343,997.57652 985.41513,997.57016 984.62119,997.54455 983.72162,997.49968 982.82204,997.45491 982.0281,997.4293 981.33982,997.42285 980.89322,997.40215 980.48025,997.46301 980.10089,997.60544 979.72153,997.74796 979.51984,998.09691 979.49584,998.6523 979.53265,999.05731 979.76635,999.30381 980.19693,999.3918 980.62751,999.47989 981.03408,999.5151 981.41664,999.49745 983.80964,999.41746 985.26625,999.78882 985.78647,1000.6115 986.30668,1001.4343 986.51477,1003.1886 986.41073,1005.8745 z"
         style="fill:#ffffff"
         id="path4753"
         inkscape:connector-curvature="0" />
      <path
         d="M 1085.1937,1037.2989 C 1085.2978,1039.9848 1085.0897,1041.7391 1084.5695,1042.5619 1084.0492,1043.3846 1082.5926,1043.756 1080.1996,1043.676 1079.7162,1043.6567 1079.2809,1043.6952 1078.8935,1043.7912 1078.5061,1043.8872 1078.3012,1044.1562 1078.2788,1044.5979 1078.29,1045.0093 1078.4213,1045.2814 1078.6726,1045.4143 1078.9239,1045.5471 1079.228,1045.608 1079.585,1045.5968 1081.0448,1045.584 1082.5046,1045.5327 1083.9645,1045.4431 1085.4243,1045.3535 1086.8841,1045.3022 1088.3439,1045.2894 1089.7973,1045.3022 1091.2315,1045.3535 1092.6465,1045.4431 1094.0615,1045.5327 1095.4957,1045.584 1096.9491,1045.5968 1097.306,1045.608 1097.6101,1045.5471 1097.8615,1045.4143 1098.1127,1045.2814 1098.244,1045.0093 1098.2552,1044.5979 1098.228,1044.1898 1098.0327,1043.9305 1097.6694,1043.82 1097.306,1043.7096 1096.9378,1043.6615 1096.5649,1043.676 1094.0246,1043.7608 1092.4784,1043.399 1091.9262,1042.5907 1091.3739,1041.7824 1091.153,1040.0184 1091.2635,1037.2989 L 1091.2635,1003.2622 C 1091.2058,1001.5255 1091.3211,1000.4467 1091.6092,1000.0257 1091.8973,999.60474 1092.7041,999.42867 1094.0294,999.49745 L 1099.1772,999.49745 C 1102.0696,999.44788 1104.0064,999.95049 1104.9876,1001.0053 1105.9688,1002.0602 1106.8492,1003.965 1107.6287,1006.7197 1107.6975,1006.9662 1107.7904,1007.2031 1107.9073,1007.4304 1108.0241,1007.6577 1108.2129,1007.7794 1108.4739,1007.7953 1108.882,1007.7794 1109.1413,1007.6385 1109.2518,1007.3727 1109.3622,1007.1071 1109.4102,1006.8126 1109.3959,1006.4892 1109.5495,1003.3263 1109.7032,1000.2018 1109.8569,997.11565 1109.86,996.99405 1109.8728,996.81477 1109.8953,996.57783 1109.9176,996.34098 1109.9305,996.08487 1109.9337,995.80951 1109.9401,995.4462 1109.8888,995.11646 1109.78,994.82029 1109.6711,994.52422 1109.4663,994.36735 1109.1654,994.34969 1108.7956,994.36575 1108.5363,994.50661 1108.3875,994.77227 1108.2386,995.03803 1108.1137,995.33256 1108.0129,995.65584 1107.7407,996.50265 1107.2669,997.01806 1106.5915,997.20209 1105.916,997.38621 1104.8275,997.45984 1103.3261,997.42298 L 1074.0531,997.42298 C 1072.6909,997.39742 1071.8425,997.16052 1071.508,996.71228 1071.1735,996.26414 1070.9974,995.75833 1070.9798,995.19485 1070.9798,994.958 1070.9222,994.75951 1070.8069,994.5994 1070.6917,994.43938 1070.5188,994.35615 1070.2883,994.34969 1069.9538,994.36095 1069.7201,994.473 1069.5872,994.68583 1069.4543,994.89877 1069.3551,995.14528 1069.2895,995.42534 1068.2907,998.71637 1067.2918,1002.0458 1066.293,1005.4135 1066.2066,1005.6249 1066.1105,1005.913 1066.0049,1006.2779 1065.8993,1006.6429 1065.8416,1006.9694 1065.832,1007.2575 1065.8304,1007.5313 1065.8913,1007.7521 1066.0145,1007.9202 1066.1378,1008.0883 1066.333,1008.1747 1066.6004,1008.1795 1066.9877,1008.1363 1067.3271,1007.8962 1067.6184,1007.4592 1067.9097,1007.0222 1068.1338,1006.6477 1068.2907,1006.3355 1070.1106,1003.1902 1072.0794,1001.2214 1074.1971,1000.429 1076.3148,999.63675 1079.4169,999.30061 1083.5034,999.42062 1084.0781,999.39185 1084.5038,999.52631 1084.7808,999.82399 1085.0577,1000.1218 1085.1953,1000.7556 1085.1937,1001.7256 z"
         style="fill:#ffffff"
         id="path4755"
         inkscape:connector-curvature="0" />
      <path
         d="M 1154.5089,1020.7031 C 1155.7974,1020.6439 1156.5817,1020.7624 1156.8618,1021.0585 1157.1419,1021.3546 1157.254,1022.1838 1157.198,1023.5459 L 1157.198,1037.2989 C 1157.302,1039.9848 1157.0939,1041.7391 1156.5737,1042.5619 1156.0535,1043.3846 1154.5969,1043.756 1152.2039,1043.676 1151.7205,1043.6567 1151.2851,1043.6952 1150.8977,1043.7912 1150.5103,1043.8872 1150.3055,1044.1562 1150.2831,1044.5979 1150.2943,1045.0093 1150.4255,1045.2814 1150.6769,1045.4143 1150.9281,1045.5471 1151.2322,1045.608 1151.5892,1045.5968 1153.0491,1045.584 1154.5089,1045.5327 1155.9688,1045.4431 1157.4286,1045.3535 1158.8884,1045.3022 1160.3482,1045.2894 1161.8016,1045.3022 1163.2358,1045.3535 1164.6508,1045.4431 1166.0658,1045.5327 1167.5,1045.584 1168.9535,1045.5968 1169.3103,1045.608 1169.6144,1045.5471 1169.8657,1045.4143 1170.1169,1045.2814 1170.2482,1045.0093 1170.2595,1044.5979 1170.2322,1044.1898 1170.0369,1043.9305 1169.6736,1043.82 1169.3102,1043.7096 1168.942,1043.6615 1168.5691,1043.676 1166.0288,1043.7512 1164.4826,1043.3702 1163.9304,1042.5331 1163.3781,1041.6959 1163.1572,1039.9512 1163.2677,1037.2989 L 1163.2677,1005.7977 C 1163.1636,1003.115 1163.3717,1001.3735 1163.892,1000.5731 1164.4122,999.77281 1165.8688,999.41426 1168.2618,999.49745 1168.6475,999.5183 1169.0669,999.47669 1169.5199,999.3726 1169.9729,999.2686 1170.2194,998.97728 1170.2595,998.49863 1170.2482,998.0841 1170.1169,997.79919 1169.8657,997.64387 1169.6143,997.48866 1169.3102,997.41503 1168.9533,997.42298 1167.4935,997.43577 1166.0337,997.48695 1164.574,997.57653 1163.1141,997.6662 1161.6543,997.71742 1160.1946,997.73018 1158.7411,997.71742 1157.3069,997.6662 1155.8919,997.57651 1154.4769,997.48692 1153.0427,997.4357 1151.5893,997.42285 1151.1987,997.41496 1150.8849,997.48862 1150.648,997.64386 1150.4111,997.79918 1150.2894,998.08411 1150.2831,998.49863 1150.3199,998.97728 1150.5536,999.2686 1150.9842,999.3726 1151.4147,999.47669 1151.8213,999.5183 1152.2039,999.49745 1154.5969,999.41426 1156.0535,999.77281 1156.5737,1000.5731 1157.0939,1001.3735 1157.302,1003.115 1157.198,1005.7977 L 1157.198,1015.709 C 1157.2444,1016.9704 1157.1131,1017.7707 1156.8042,1018.11 1156.4952,1018.4494 1155.7301,1018.5967 1154.5089,1018.5518 L 1132.9958,1018.5518 C 1131.7745,1018.5951 1131.0094,1018.5086 1130.7005,1018.2925 1130.3915,1018.0765 1130.2603,1017.4714 1130.3067,1016.4774 L 1130.3067,1005.7977 C 1130.2027,1003.115 1130.4107,1001.3735 1130.931,1000.5731 1131.4512,999.77281 1132.9078,999.41426 1135.3008,999.49745 1135.6866,999.5183 1136.1059,999.47669 1136.5589,999.3726 1137.0119,999.2686 1137.2584,998.97728 1137.2984,998.49863 1137.2872,998.0841 1137.156,997.79919 1136.9047,997.64387 1136.6534,997.48866 1136.3492,997.41503 1135.9923,997.42298 1134.5325,997.43577 1133.0727,997.48695 1131.6129,997.57653 1130.1531,997.6662 1128.6933,997.71742 1127.2335,997.73018 1125.78,997.71742 1124.3458,997.6662 1122.9308,997.57651 1121.5158,997.48692 1120.0816,997.4357 1118.6282,997.42285 1118.2377,997.41496 1117.9239,997.48862 1117.687,997.64386 1117.4501,997.79918 1117.3285,998.08411 1117.3221,998.49863 1117.3589,998.97728 1117.5926,999.2686 1118.0232,999.3726 1118.4538,999.47669 1118.8603,999.5183 1119.2429,999.49745 1121.6359,999.41426 1123.0925,999.77281 1123.6127,1000.5731 1124.1329,1001.3735 1124.341,1003.115 1124.237,1005.7977 L 1124.237,1037.2989 C 1124.341,1039.9848 1124.1329,1041.7391 1123.6127,1042.5619 1123.0925,1043.3846 1121.6359,1043.756 1119.2429,1043.676 1118.7595,1043.6567 1118.3241,1043.6952 1117.9367,1043.7912 1117.5494,1043.8872 1117.3445,1044.1562 1117.3221,1044.5979 1117.3333,1045.0093 1117.4645,1045.2814 1117.7158,1045.4143 1117.9671,1045.5471 1118.2713,1045.608 1118.6282,1045.5968 1120.088,1045.584 1121.5479,1045.5327 1123.0077,1045.4431 1124.4675,1045.3535 1125.9273,1045.3022 1127.3871,1045.2894 1128.8405,1045.3022 1130.2747,1045.3535 1131.6897,1045.4431 1133.1047,1045.5327 1134.5389,1045.584 1135.9924,1045.5968 1136.3493,1045.608 1136.6534,1045.5471 1136.9047,1045.4143 1137.156,1045.2814 1137.2872,1045.0093 1137.2984,1044.5979 1137.2776,1044.1898 1137.0695,1043.9305 1136.6742,1043.82 1136.2788,1043.7096 1135.821,1043.6615 1135.3008,1043.676 1132.9078,1043.7512 1131.4512,1043.3702 1130.931,1042.5331 1130.4107,1041.6959 1130.2027,1039.9512 1130.3067,1037.2989 L 1130.3067,1023.5459 C 1130.2603,1022.251 1130.4107,1021.4411 1130.7581,1021.1161 1131.1054,1020.7912 1131.9282,1020.6535 1133.2263,1020.7031 z"
         style="fill:#ffffff"
         id="path4757"
         inkscape:connector-curvature="0" />
      <path
         d="M 1186.1884,1037.0684 C 1186.2924,1039.7239 1186.0843,1041.4814 1185.5641,1042.341 1185.0439,1043.2006 1183.5873,1043.5943 1181.1943,1043.5223 1180.7749,1043.5079 1180.3459,1043.5559 1179.9073,1043.6663 1179.4687,1043.7768 1179.2318,1044.0361 1179.1966,1044.4443 1179.2078,1044.862 1179.3391,1045.1598 1179.5904,1045.3374 1179.8417,1045.5151 1180.1458,1045.6016 1180.5028,1045.5968 1181.1462,1045.5952 1181.7801,1045.5792 1182.4044,1045.5487 1183.0286,1045.5183 1183.7009,1045.4831 1184.4212,1045.4431 1185.1047,1045.4031 1185.889,1045.3679 1186.7742,1045.3374 1187.6594,1045.307 1188.6934,1045.291 1189.8763,1045.2894 L 1215.2309,1045.2894 C 1215.5654,1045.315 1215.7991,1045.2638 1215.932,1045.1358 1216.0648,1045.0077 1216.1641,1044.6492 1216.2297,1044.0601 1216.3898,1042.8308 1216.569,1041.6015 1216.7676,1040.3722 1216.966,1039.1429 1217.1453,1037.9135 1217.3054,1036.6842 1217.3518,1036.3769 1217.4126,1036.0696 1217.4879,1035.7622 1217.563,1035.4549 1217.6047,1035.1476 1217.6127,1034.8403 1217.6255,1034.2896 1217.3694,1034.0079 1216.8444,1033.9951 1216.4426,1034.0127 1216.1321,1034.2656 1215.9128,1034.7538 1215.6935,1035.242 1215.4406,1035.8599 1215.1541,1036.6074 1213.7631,1039.8199 1211.9927,1041.808 1209.8431,1042.5715 1207.6933,1043.335 1204.9818,1043.6519 1201.7085,1043.5223 1198.6592,1043.6664 1196.3254,1043.359 1194.7071,1042.6003 1193.0888,1041.8416 1192.2725,1039.7671 1192.2581,1036.3769 L 1192.2581,1023.0081 C 1192.2261,1021.7564 1192.4822,1020.9945 1193.0264,1020.7223 1193.5706,1020.4502 1194.5951,1020.3414 1196.0997,1020.3958 1200.327,1020.3526 1203.2243,1020.5351 1204.7913,1020.9432 1206.3584,1021.3514 1207.2772,1022.2446 1207.5477,1023.6228 1207.7077,1024.3815 1207.8678,1025.169 1208.0279,1025.9853 1208.1879,1026.8017 1208.5401,1027.2435 1209.0843,1027.3107 1209.2876,1027.3299 1209.4765,1027.2531 1209.651,1027.0802 1209.8254,1026.9073 1209.9183,1026.5232 1209.9295,1025.9277 1209.9167,1024.7048 1209.8655,1023.5011 1209.7759,1022.3165 1209.6862,1021.1321 1209.635,1019.9284 1209.6223,1018.7054 1209.635,1017.6234 1209.6862,1016.5221 1209.7759,1015.4016 1209.8655,1014.2812 1209.9167,1013.1799 1209.9296,1012.0978 1209.9183,1011.797 1209.8254,1011.5921 1209.651,1011.4833 1209.4765,1011.3745 1209.2876,1011.3232 1209.0843,1011.3296 1208.5705,1011.3873 1208.2344,1011.7714 1208.0759,1012.4821 1207.9174,1013.1928 1207.7926,1013.8843 1207.7014,1014.5566 1207.4916,1016.3237 1206.8162,1017.3994 1205.6749,1017.7835 1204.5336,1018.1677 1202.1102,1018.3214 1198.4047,1018.2445 1195.493,1018.3198 1193.7099,1018.1693 1193.0552,1017.7931 1192.4005,1017.417 1192.1348,1016.3637 1192.2581,1014.6334 L 1192.2581,1003.4927 C 1192.2421,1002.654 1192.2741,1001.9689 1192.3541,1001.4375 1192.4342,1000.9061 1192.6582,1000.4899 1193.0264,1000.1889 1193.4282,999.89126 1194.1229,999.69918 1195.1105,999.6127 1196.0981,999.52631 1197.5035,999.48789 1199.3267,999.49745 1203.7861,999.45428 1206.8914,999.80963 1208.6426,1000.5635 1210.3937,1001.3175 1211.6934,1002.7292 1212.5418,1004.7989 1212.7338,1005.1895 1212.9259,1005.5992 1213.118,1006.0282 1213.3101,1006.4572 1213.5022,1006.867 1213.6943,1007.2575 1213.8895,1007.6449 1214.0944,1007.9458 1214.3089,1008.1603 1214.5234,1008.3748 1214.7283,1008.4837 1214.9236,1008.4868 1215.2549,1008.4676 1215.4566,1008.2948 1215.5286,1007.9682 1215.6006,1007.6417 1215.6294,1007.2767 1215.6151,1006.8733 L 1215.6151,1000.2658 C 1215.6374,999.13895 1215.5926,998.37703 1215.4806,997.98001 1215.3685,997.58309 1215.0548,997.39742 1214.5394,997.42298 1211.2789,997.43577 1208.0231,997.48695 1204.7722,997.57653 1201.5212,997.6662 1198.2462,997.71742 1194.9473,997.73018 1192.559,997.71742 1190.1516,997.6662 1187.725,997.57651 1185.2984,997.48692 1182.891,997.4357 1180.5028,997.42285 1180.1458,997.42296 1179.8417,997.51904 1179.5904,997.71108 1179.3391,997.90323 1179.2078,998.19135 1179.1966,998.57546 1179.2318,999.01729 1179.4687,999.28621 1179.9073,999.3822 1180.3459,999.47829 1180.7749,999.5167 1181.1943,999.49745 1183.5873,999.42867 1185.0439,999.81603 1185.5641,1000.6595 1186.0843,1001.5031 1186.2924,1003.2158 1186.1884,1005.7977 z"
         style="fill:#ffffff"
         id="path4759"
         inkscape:connector-curvature="0" />
      <path
         d="M 1263.8675,1037.2989 C 1263.9716,1039.9512 1263.7635,1041.6959 1263.2433,1042.5331 1262.7231,1043.3702 1261.2665,1043.7512 1258.8735,1043.676 1258.1516,1043.6599 1257.6361,1043.692 1257.3272,1043.772 1257.0183,1043.852 1256.8678,1044.0761 1256.8758,1044.4443 1256.8854,1044.862 1257.0199,1045.1598 1257.2792,1045.3374 1257.5385,1045.5151 1257.865,1045.6016 1258.2588,1045.5968 1259.3777,1045.584 1260.5013,1045.5327 1261.6298,1045.4431 1262.7583,1045.3535 1263.8628,1045.3022 1264.9432,1045.2894 1266.0893,1045.3022 1267.2162,1045.3535 1268.3239,1045.4431 1269.4315,1045.5327 1270.5584,1045.584 1271.7045,1045.5968 1272.095,1045.6016 1272.4087,1045.5151 1272.6456,1045.3374 1272.8825,1045.1598 1273.0042,1044.862 1273.0106,1044.4443 1273.001,1044.1097 1272.8857,1043.8952 1272.6648,1043.8008 1272.4439,1043.7064 1272.175,1043.6647 1271.8581,1043.676 1269.0969,1043.7752 1267.4162,1043.4423 1266.816,1042.6771 1266.2157,1041.912 1265.9756,1040.1193 1266.0957,1037.2989 L 1266.0957,1004.5684 1266.0957,1002.5707 C 1266.2765,1002.7645 1266.5679,1003.1262 1266.9696,1003.656 1267.3714,1004.1859 1267.7204,1004.6436 1268.0165,1005.0294 1272.4375,1010.787 1276.8682,1016.5398 1281.3085,1022.2878 1285.7487,1028.0358 1290.1793,1033.8078 1294.6004,1039.6038 1295.2182,1040.4138 1295.8457,1041.2333 1296.4828,1042.0625 1297.1198,1042.8916 1297.7473,1043.7112 1298.3652,1044.5211 1298.5604,1044.8669 1298.8229,1045.251 1299.1527,1045.6736 1299.4824,1046.0962 1299.8602,1046.3267 1300.286,1046.3651 1300.5437,1046.3715 1300.7005,1046.2626 1300.7566,1046.0385 1300.8126,1045.8144 1300.835,1045.4367 1300.8238,1044.9053 L 1300.8238,1005.8745 C 1300.7197,1003.2895 1300.9278,1001.564 1301.4481,1000.698 1301.9683,999.83203 1303.4249,999.43187 1305.8179,999.49745 1306.2372,999.5151 1306.6662,999.47989 1307.1049,999.39181 1307.5434,999.30381 1307.7803,999.05731 1307.8156,998.6523 1307.8043,998.23137 1307.673,997.92084 1307.4218,997.72071 1307.1704,997.52067 1306.8663,997.42143 1306.5094,997.42298 1305.4002,997.43577 1304.2957,997.48695 1303.1961,997.57653 1302.0964,997.6662 1300.9728,997.71742 1299.8251,997.73018 1298.679,997.71742 1297.5521,997.6662 1296.4445,997.57651 1295.3368,997.48692 1294.2099,997.4357 1293.0639,997.42285 1292.67,997.42136 1292.3435,997.52064 1292.0842,997.72069 1291.8248,997.92083 1291.6904,998.23137 1291.6808,998.6523 1291.7176,999.05731 1291.9513,999.30381 1292.3819,999.3918 1292.8124,999.47989 1293.219,999.5151 1293.6016,999.49745 1296.0314,999.42707 1297.5104,999.81763 1298.0387,1000.6691 1298.5668,1001.5207 1298.7781,1003.2559 1298.6725,1005.8745 L 1298.6725,1034.3793 1298.6725,1035.3781 C 1298.2499,1034.8371 1297.8273,1034.2864 1297.4048,1033.7262 1296.9822,1033.166 1296.5596,1032.6153 1296.1371,1032.0743 1291.9833,1026.7761 1287.844,1021.4683 1283.7191,1016.1508 1279.5941,1010.8334 1275.5124,1005.4872 1271.4739,1000.1121 1271.0209,999.46228 1270.5439,998.86043 1270.0429,998.30655 1269.5419,997.75276 1268.9689,997.45824 1268.3238,997.42298 1267.6691,997.42937 1266.8848,997.45494 1265.9709,997.4997 1265.0569,997.54455 1264.2533,997.57016 1263.5602,997.57652 1262.8719,997.57016 1262.078,997.54455 1261.1784,997.49968 1260.2789,997.45491 1259.4849,997.4293 1258.7966,997.42285 1258.35,997.40215 1257.9371,997.46301 1257.5577,997.60544 1257.1783,997.74796 1256.9767,998.09691 1256.9527,998.6523 1256.9895,999.05731 1257.2232,999.30381 1257.6537,999.3918 1258.0843,999.47989 1258.4909,999.5151 1258.8735,999.49745 1261.2665,999.41746 1262.7231,999.78882 1263.2433,1000.6115 1263.7635,1001.4343 1263.9716,1003.1886 1263.8675,1005.8745 z"
         style="fill:#ffffff"
         id="path4761"
         inkscape:connector-curvature="0" />
      <path
         d="M 1340.8768,1027.8485 C 1342.5879,1027.7669 1343.6411,1027.9302 1344.0365,1028.3383 1344.4319,1028.7465 1344.9665,1029.8894 1345.6404,1031.767 1346.1238,1032.8586 1346.8089,1034.4593 1347.6957,1036.569 1348.5824,1038.6787 1349.0754,1040.2793 1349.1747,1041.371 1349.0946,1042.4755 1348.5248,1043.1477 1347.4652,1043.3878 1346.4055,1043.6279 1345.3362,1043.724 1344.2574,1043.676 1343.8284,1043.6519 1343.361,1043.7 1342.8552,1043.82 1342.3494,1043.9401 1342.0741,1044.2762 1342.0293,1044.8284 1342.0517,1045.163 1342.1989,1045.3775 1342.4711,1045.4719 1342.7432,1045.5663 1343.0057,1045.608 1343.2586,1045.5968 1344.6848,1045.584 1346.1158,1045.5327 1347.5517,1045.4431 1348.9875,1045.3535 1350.3993,1045.3022 1351.7871,1045.2894 1353.4774,1045.3022 1355.1677,1045.3535 1356.858,1045.4431 1358.5483,1045.5327 1360.2386,1045.584 1361.929,1045.5968 1362.1449,1045.608 1362.385,1045.5663 1362.6491,1045.4719 1362.9132,1045.3775 1363.0573,1045.163 1363.0813,1044.8284 1363.0364,1044.2762 1362.7611,1043.9401 1362.2554,1043.82 1361.7495,1043.7 1361.2821,1043.6519 1360.8532,1043.676 1359.0204,1043.5527 1357.6534,1042.6851 1356.7523,1041.0733 1355.851,1039.4614 1355.1179,1037.8447 1354.5529,1036.2232 1351.9758,1029.8046 1349.3891,1023.3763 1346.7929,1016.9384 1344.1966,1010.5005 1341.6099,1004.0722 1339.0328,997.65348 1338.9656,997.39101 1338.8503,997.09009 1338.6871,996.7507 1338.5238,996.41141 1338.2549,996.22573 1337.8804,996.19367 1337.5074,996.22573 1337.2353,996.43062 1337.064,996.80832 1336.8927,997.18613 1336.7551,997.54468 1336.651,997.88397 1336.4589,998.38023 1336.2669,998.86683 1336.0748,999.34379 1335.8827,999.82083 1335.6906,1000.3074 1335.4986,1000.8036 1333.2288,1006.7229 1330.9494,1012.6518 1328.6605,1018.5902 1326.3715,1024.5288 1324.0922,1030.4576 1321.8224,1036.3769 1320.6763,1039.6391 1319.6647,1041.7007 1318.7876,1042.5619 1317.9104,1043.423 1316.6683,1043.7944 1315.0612,1043.676 1314.669,1043.6551 1314.224,1043.6968 1313.7262,1043.8008 1313.2284,1043.9049 1312.9563,1044.1962 1312.9099,1044.6748 1312.9243,1045.0493 1313.0684,1045.299 1313.3421,1045.4239 1313.6158,1045.5487 1313.9327,1045.6064 1314.2929,1045.5968 1315.0852,1045.584 1316.401,1045.5327 1318.2401,1045.4431 1320.0793,1045.3535 1321.3759,1045.3022 1322.1298,1045.2894 1322.9173,1045.3022 1323.993,1045.3535 1325.3567,1045.4431 1326.7205,1045.5327 1327.7962,1045.584 1328.5837,1045.5968 1328.9966,1045.616 1329.4,1045.5775 1329.7938,1045.4815 1330.1875,1045.3855 1330.3988,1045.1166 1330.4276,1044.6748 1330.4004,1044.2298 1330.2051,1043.9481 1329.8418,1043.8296 1329.4784,1043.7112 1329.1103,1043.6599 1328.7373,1043.676 1327.8714,1043.7336 1326.7797,1043.6183 1325.4624,1043.3302 1324.145,1043.0421 1323.4183,1042.2354 1323.2822,1040.91 1323.3655,1039.6007 1323.8137,1037.936 1324.6268,1035.9159 1325.4399,1033.8959 1326.1186,1032.2312 1326.6629,1030.9218 1327.2199,1029.4492 1327.6617,1028.5528 1327.9882,1028.2327 1328.3147,1027.9126 1328.8718,1027.7845 1329.6593,1027.8485 z M 1330.5813,1025.5436 C 1330.1443,1025.5532 1329.7697,1025.534 1329.4576,1025.4859 1329.1455,1025.4379 1328.9822,1025.3035 1328.9678,1025.0826 1328.9726,1024.9577 1329.0014,1024.8041 1329.0543,1024.6216 1329.1071,1024.4391 1329.1551,1024.2855 1329.1983,1024.1606 1330.0771,1021.8204 1330.951,1019.4898 1331.8202,1017.1689 1332.6894,1014.8479 1333.5825,1012.5173 1334.4997,1010.1771 1334.6598,1009.745 1334.8583,1009.2648 1335.0952,1008.7365 1335.3321,1008.2083 1335.569,1007.9202 1335.8059,1007.8722 1336.0108,1007.9298 1336.2348,1008.2371 1336.4782,1008.7941 1336.7215,1009.3512 1336.9071,1009.8122 1337.0352,1010.1771 1337.8819,1012.3973 1338.7431,1014.5838 1339.6187,1016.7367 1340.4942,1018.8896 1341.3746,1021.0569 1342.2598,1023.2386 1342.2822,1023.3571 1342.3718,1023.6196 1342.5287,1024.0261 1342.6855,1024.4327 1342.7752,1024.7336 1342.7976,1024.9289 1342.8056,1025.2234 1342.6359,1025.4027 1342.2886,1025.4667 1341.9412,1025.5308 1341.3682,1025.5564 1340.5695,1025.5436 z"
         style="fill:#ffffff"
         id="path4763"
         inkscape:connector-curvature="0" />
      <path
         d="M 1408.3132,1044.6748 C 1408.3356,1045.0829 1408.502,1045.3422 1408.8126,1045.4527 1409.1231,1045.5631 1409.4432,1045.6112 1409.773,1045.5968 1411.2729,1045.584 1412.7871,1045.5327 1414.3158,1045.4431 1415.8444,1045.3535 1417.3779,1045.3022 1418.9162,1045.2894 1420.1454,1045.3022 1421.3748,1045.3535 1422.6041,1045.4431 1423.8334,1045.5327 1425.0627,1045.584 1426.2921,1045.5968 1426.6217,1045.6112 1426.9418,1045.5631 1427.2524,1045.4527 1427.5628,1045.3422 1427.7293,1045.0829 1427.7517,1044.6748 1427.7277,1044.2298 1427.526,1043.9481 1427.1467,1043.8296 1426.7673,1043.7112 1426.3543,1043.6599 1425.9078,1043.676 1424.1118,1043.7656 1422.9209,1043.4134 1422.3351,1042.6195 1421.7492,1041.8256 1421.4803,1040.052 1421.5283,1037.2989 L 1421.5283,1005.5672 C 1421.4707,1003.0286 1421.5859,1001.3639 1421.8741,1000.5731 1422.1621,999.78241 1422.9689,999.42386 1424.2943,999.49745 1425.3635,999.52311 1426.1446,999.47189 1426.6377,999.34379 1427.1306,999.21578 1427.3739,998.85723 1427.3676,998.26814 1427.3611,997.86321 1427.1626,997.61671 1426.7721,997.52862 1426.3815,997.44063 1425.8373,997.40542 1425.1394,997.42298 1424.3167,997.42937 1423.5228,997.45494 1422.7578,997.4997 1421.9926,997.54455 1421.3524,997.57016 1420.837,997.57652 1420.1999,997.57016 1419.4956,997.54455 1418.7241,997.49968 1417.9525,997.45491 1417.2482,997.4293 1416.6112,997.42285 1416.1789,997.41176 1415.7755,997.47262 1415.401,997.60544 1415.0264,997.73836 1414.7382,998.01048 1414.5366,998.4218 1412.2924,1003.4095 1410.0771,1008.474 1407.8906,1013.6154 1405.7041,1018.7567 1403.4119,1024.0133 1401.0141,1029.3852 1400.5051,1030.5649 1400.0441,1031.6629 1399.6312,1032.6793 1399.2182,1033.6958 1398.9108,1034.2368 1398.7092,1034.3024 1398.4979,1034.2112 1398.1905,1033.6254 1397.7872,1032.5449 1397.3838,1031.4645 1396.9996,1030.4368 1396.6347,1029.462 1394.6739,1024.5031 1392.6986,1019.5347 1390.709,1014.5566 1388.7194,1009.5785 1386.7249,1004.61 1384.7257,999.65111 1384.5064,999.05411 1384.2727,998.53869 1384.0246,998.10487 1383.7765,997.67113 1383.4468,997.44384 1383.0354,997.42298 1382.4176,997.42937 1381.6749,997.45494 1380.8073,997.4997 1379.9397,997.54455 1379.197,997.57016 1378.5792,997.57652 1377.8909,997.57016 1377.0969,997.54455 1376.1974,997.49968 1375.2978,997.45491 1374.5039,997.4293 1373.8156,997.42285 1373.0504,997.40535 1372.487,997.44061 1372.1252,997.52861 1371.7635,997.61671 1371.5842,997.86322 1371.5874,998.26814 1371.6162,998.79 1371.8275,999.12934 1372.2213,999.28616 1372.615,999.44307 1373.0184,999.5135 1373.4314,999.49745 1375.4002,999.41586 1376.6295,999.61755 1377.1193,1000.1025 1377.6091,1000.5876 1377.7628,1001.8457 1377.5803,1003.8769 1377.467,1005.7555 1377.2668,1008.64 1376.9799,1012.5305 1376.693,1016.4209 1376.3847,1020.6486 1376.0551,1025.2135 1375.7254,1029.7784 1375.4399,1034.0117 1375.1985,1037.9135 1375.1681,1039.8007 1374.8832,1041.2317 1374.3438,1042.2065 1373.8043,1043.1813 1372.5014,1043.6712 1370.4349,1043.676 1370.0492,1043.6599 1369.6298,1043.7112 1369.1768,1043.8296 1368.7238,1043.9481 1368.4773,1044.2298 1368.4373,1044.6748 1368.4453,1045.0493 1368.5638,1045.299 1368.7927,1045.4239 1369.0215,1045.5487 1369.3129,1045.6064 1369.6666,1045.5968 1370.7823,1045.584 1371.9124,1045.5327 1373.0568,1045.4431 1374.2013,1045.3535 1375.3506,1045.3022 1376.5047,1045.2894 1377.6572,1045.3022 1378.8097,1045.3535 1379.9622,1045.4431 1381.1146,1045.5327 1382.2671,1045.584 1383.4196,1045.5968 1383.7925,1045.616 1384.1607,1045.5775 1384.524,1045.4815 1384.8874,1045.3855 1385.0827,1045.1166 1385.1099,1044.6748 1385.0763,1044.2298 1384.8362,1043.9481 1384.3896,1043.8296 1383.943,1043.7112 1383.4916,1043.6599 1383.0354,1043.676 1381.1274,1043.7176 1379.738,1043.3078 1378.8673,1042.4466 1377.9965,1041.5855 1377.5675,1040.0232 1377.5803,1037.7599 1377.5955,1035.4549 1377.7359,1032.4585 1378.0015,1028.7705 1378.2671,1025.0826 1378.5668,1021.1641 1378.9007,1017.0152 1379.2346,1012.8663 1379.5116,1008.9478 1379.7316,1005.2599 1379.7604,1004.602 1379.7988,1004.093 1379.8469,1003.7328 1379.8949,1003.3727 1380.0101,1003.1902 1380.1926,1003.1854 1380.3063,1003.2046 1380.4247,1003.3775 1380.548,1003.704 1380.6712,1004.0306 1380.8089,1004.3955 1380.9609,1004.7989 1385.8654,1017.3225 1390.7314,1029.8462 1395.5591,1042.3698 1395.6263,1042.6659 1395.7415,1042.9765 1395.9048,1043.3014 1396.068,1043.6263 1396.337,1043.8024 1396.7115,1043.8296 1397.0477,1043.8056 1397.2974,1043.6423 1397.4607,1043.3398 1397.6239,1043.0373 1397.7584,1042.7396 1397.864,1042.4466 1400.5883,1036.1048 1403.3031,1029.7533 1406.0082,1023.3923 1408.7133,1017.0312 1411.4281,1010.6798 1414.1524,1004.3379 1414.4133,1003.7473 1414.6214,1003.2575 1414.7767,1002.8685 1414.9319,1002.4795 1415.0824,1002.2779 1415.2281,1002.2634 1415.3385,1002.2506 1415.4057,1002.3339 1415.4298,1002.5131 1415.4537,1002.6924 1415.4633,1003.0446 1415.4586,1003.5696 L 1415.4586,1037.2989 C 1415.5578,1039.1445 1415.3593,1040.6587 1414.8631,1041.8416 1414.3669,1043.0245 1412.9775,1043.6359 1410.695,1043.676 1409.9907,1043.6567 1409.4208,1043.6952 1408.9855,1043.7912 1408.5501,1043.8872 1408.326,1044.1562 1408.3132,1044.5979 z"
         style="fill:#ffffff"
         id="path4765"
         inkscape:connector-curvature="0" />
      <path
         d="M 1443.3386,1037.0684 C 1443.4426,1039.7239 1443.2345,1041.4814 1442.7143,1042.341 1442.1941,1043.2006 1440.7375,1043.5943 1438.3445,1043.5223 1437.9251,1043.5079 1437.4961,1043.5559 1437.0575,1043.6663 1436.6189,1043.7768 1436.382,1044.0361 1436.3468,1044.4443 1436.358,1044.862 1436.4893,1045.1598 1436.7406,1045.3374 1436.9919,1045.5151 1437.296,1045.6016 1437.653,1045.5968 1438.2964,1045.5952 1438.9303,1045.5792 1439.5546,1045.5487 1440.1788,1045.5183 1440.8511,1045.4831 1441.5714,1045.4431 1442.2549,1045.4031 1443.0392,1045.3679 1443.9244,1045.3374 1444.8096,1045.307 1445.8436,1045.291 1447.0265,1045.2894 L 1472.3811,1045.2894 C 1472.7156,1045.315 1472.9493,1045.2638 1473.0822,1045.1358 1473.215,1045.0077 1473.3143,1044.6492 1473.3799,1044.0601 1473.54,1042.8308 1473.7192,1041.6015 1473.9178,1040.3722 1474.1162,1039.1429 1474.2955,1037.9135 1474.4556,1036.6842 1474.502,1036.3769 1474.5628,1036.0696 1474.6381,1035.7622 1474.7133,1035.4549 1474.7549,1035.1476 1474.7629,1034.8403 1474.7757,1034.2896 1474.5196,1034.0079 1473.9946,1033.9951 1473.5928,1034.0127 1473.2823,1034.2656 1473.063,1034.7538 1472.8437,1035.242 1472.5908,1035.8599 1472.3043,1036.6074 1470.9133,1039.8199 1469.1429,1041.808 1466.9933,1042.5715 1464.8435,1043.335 1462.132,1043.6519 1458.8587,1043.5223 1455.8094,1043.6664 1453.4756,1043.359 1451.8573,1042.6003 1450.239,1041.8416 1449.4227,1039.7671 1449.4083,1036.3769 L 1449.4083,1023.0081 C 1449.3763,1021.7564 1449.6324,1020.9945 1450.1766,1020.7223 1450.7208,1020.4502 1451.7453,1020.3414 1453.2499,1020.3958 1457.4773,1020.3526 1460.3745,1020.5351 1461.9415,1020.9432 1463.5086,1021.3514 1464.4274,1022.2446 1464.6979,1023.6228 1464.8579,1024.3815 1465.018,1025.169 1465.1781,1025.9853 1465.3381,1026.8017 1465.6903,1027.2435 1466.2345,1027.3107 1466.4378,1027.3299 1466.6267,1027.2531 1466.8012,1027.0802 1466.9756,1026.9073 1467.0685,1026.5232 1467.0797,1025.9277 1467.0669,1024.7048 1467.0157,1023.5011 1466.9261,1022.3165 1466.8365,1021.1321 1466.7852,1019.9284 1466.7725,1018.7054 1466.7852,1017.6234 1466.8365,1016.5221 1466.9261,1015.4016 1467.0157,1014.2812 1467.067,1013.1799 1467.0798,1012.0978 1467.0685,1011.797 1466.9756,1011.5921 1466.8012,1011.4833 1466.6267,1011.3745 1466.4378,1011.3232 1466.2345,1011.3296 1465.7207,1011.3873 1465.3846,1011.7714 1465.2261,1012.4821 1465.0676,1013.1928 1464.9428,1013.8843 1464.8516,1014.5566 1464.6418,1016.3237 1463.9664,1017.3994 1462.8251,1017.7835 1461.6838,1018.1677 1459.2604,1018.3214 1455.5549,1018.2445 1452.6432,1018.3198 1450.8601,1018.1693 1450.2054,1017.7931 1449.5507,1017.417 1449.285,1016.3637 1449.4083,1014.6334 L 1449.4083,1003.4927 C 1449.3923,1002.654 1449.4243,1001.9689 1449.5043,1001.4375 1449.5844,1000.9061 1449.8085,1000.4899 1450.1766,1000.1889 1450.5784,999.89126 1451.2731,999.69918 1452.2607,999.6127 1453.2483,999.52631 1454.6537,999.48789 1456.4769,999.49745 1460.9363,999.45428 1464.0416,999.80963 1465.7928,1000.5635 1467.5439,1001.3175 1468.8436,1002.7292 1469.692,1004.7989 1469.884,1005.1895 1470.0761,1005.5992 1470.2682,1006.0282 1470.4603,1006.4572 1470.6524,1006.867 1470.8445,1007.2575 1471.0397,1007.6449 1471.2446,1007.9458 1471.4591,1008.1603 1471.6736,1008.3748 1471.8785,1008.4837 1472.0738,1008.4868 1472.4051,1008.4676 1472.6068,1008.2948 1472.6788,1007.9682 1472.7508,1007.6417 1472.7797,1007.2767 1472.7653,1006.8733 L 1472.7653,1000.2658 C 1472.7877,999.13895 1472.7428,998.37703 1472.6308,997.98001 1472.5187,997.58309 1472.205,997.39742 1471.6896,997.42298 1468.4291,997.43577 1465.1733,997.48695 1461.9224,997.57653 1458.6714,997.6662 1455.3964,997.71742 1452.0975,997.73018 1449.7093,997.71742 1447.3018,997.6662 1444.8752,997.57651 1442.4486,997.48692 1440.0412,997.4357 1437.653,997.42285 1437.296,997.42296 1436.9919,997.51904 1436.7406,997.71108 1436.4893,997.90323 1436.358,998.19135 1436.3468,998.57546 1436.382,999.01729 1436.6189,999.28621 1437.0575,999.3822 1437.4961,999.47829 1437.9251,999.5167 1438.3445,999.49745 1440.7375,999.42867 1442.1941,999.81603 1442.7143,1000.6595 1443.2345,1001.5031 1443.4426,1003.2158 1443.3386,1005.7977 z"
         style="fill:#ffffff"
         id="path4767"
         inkscape:connector-curvature="0" />
      <path
         d="M 1515.1017,1021.1641 C 1515.1766,1025.8756 1516.4695,1030.1118 1518.9803,1033.8727 1521.4911,1037.6337 1524.7702,1040.6178 1528.8176,1042.8251 1532.8651,1045.0324 1537.2312,1046.1611 1541.9161,1046.2114 1549.4168,1046.0946 1555.6978,1043.7736 1560.7592,1039.2485 1565.8205,1034.7234 1568.452,1028.6953 1568.6537,1021.1641 1568.452,1013.6362 1565.8205,1007.6209 1560.7592,1003.1182 1555.6978,998.61553 1549.4168,996.30736 1541.9161,996.19367 1537.2312,996.24352 1532.8651,997.3647 1528.8176,999.55721 1524.7702,1001.7498 1521.4911,1004.715 1518.9803,1008.4527 1516.4695,1012.1904 1515.1766,1016.402 1515.1017,1021.0873 z M 1561.662,1021.1641 C 1561.568,1026.744 1560.4668,1031.2154 1558.3582,1034.5785 1556.2495,1037.9415 1553.697,1040.3698 1550.7006,1041.8633 1547.7041,1043.3568 1544.8272,1044.089 1542.0698,1044.0601 1536.7299,1044.0665 1532.1008,1042.1713 1528.1824,1038.3745 1524.2639,1034.5778 1522.2086,1028.841 1522.0166,1021.1641 1522.2134,1013.4873 1524.2783,1007.7505 1528.2112,1003.9537 1532.144,1000.157 1536.7635,998.26178 1542.0698,998.26814 1544.9723,998.24826 1547.9175,999.01374 1550.9055,1000.5646 1553.8934,1002.1155 1556.4117,1004.5713 1558.4606,1007.9319 1560.5094,1011.2926 1561.5766,1015.6778 1561.662,1021.0873 z"
         style="fill:#ffffff"
         id="path4769"
         inkscape:connector-curvature="0" />
      <path
         d="M 1591.9634,1023.0081 C 1591.9313,1021.7564 1592.1874,1020.9945 1592.7317,1020.7223 1593.2759,1020.4502 1594.3003,1020.3414 1595.805,1020.3958 1600.0323,1020.3526 1602.9295,1020.5351 1604.4966,1020.9432 1606.0636,1021.3514 1606.9824,1022.2446 1607.253,1023.6228 1607.413,1024.3815 1607.5731,1025.169 1607.7332,1025.9853 1607.8932,1026.8017 1608.2453,1027.2435 1608.7896,1027.3107 1608.9929,1027.3299 1609.1817,1027.2531 1609.3562,1027.0802 1609.5307,1026.9073 1609.6235,1026.5232 1609.6348,1025.9277 1609.622,1024.7048 1609.5708,1023.5011 1609.4812,1022.3165 1609.3915,1021.1321 1609.3403,1019.9284 1609.3275,1018.7054 1609.3403,1017.6234 1609.3915,1016.5221 1609.4812,1015.4016 1609.5708,1014.2812 1609.622,1013.1799 1609.6348,1012.0978 1609.6236,1011.797 1609.5307,1011.5921 1609.3562,1011.4833 1609.1817,1011.3745 1608.9929,1011.3232 1608.7896,1011.3296 1608.2758,1011.3873 1607.9396,1011.7714 1607.7812,1012.4821 1607.6227,1013.1928 1607.4978,1013.8843 1607.4066,1014.5566 1607.1681,1016.3237 1606.435,1017.3994 1605.2073,1017.7835 1603.9796,1018.1677 1601.6138,1018.3214 1598.1099,1018.2445 1595.1983,1018.3198 1593.4151,1018.1693 1592.7605,1017.7931 1592.1058,1017.417 1591.8401,1016.3637 1591.9634,1014.6334 L 1591.9634,1003.7232 C 1591.8065,1001.7656 1592.1202,1000.5523 1592.9045,1000.0833 1593.6889,999.61434 1595.885,999.41906 1599.4929,999.49745 1602.5101,999.40786 1605.1,999.64476 1607.2626,1000.2081 1609.425,1000.7716 1611.0353,1002.1994 1612.0934,1004.4915 1612.4471,1005.4312 1612.7576,1006.3179 1613.025,1007.1519 1613.2923,1007.9858 1613.6988,1008.4308 1614.2447,1008.4868 1614.5824,1008.4692 1614.8097,1008.2932 1614.9266,1007.9586 1615.0434,1007.6241 1615.0978,1007.2367 1615.0898,1006.7965 1615.0866,1006.2203 1615.0738,1005.2599 1615.0514,1003.9153 1615.029,1002.5708 1615.0162,1001.303 1615.013,1000.1121 1615.0386,999.12614 1614.9874,998.42825 1614.8593,998.01843 1614.7313,997.6087 1614.3727,997.41022 1613.7837,997.42298 1609.8284,997.43097 1605.8876,997.47255 1601.9612,997.54772 1598.0347,997.62299 1594.1131,997.68381 1590.1963,997.73018 1588.5411,997.71742 1586.8764,997.6662 1585.2021,997.57651 1583.5278,997.48692 1581.8631,997.4357 1580.208,997.42285 1579.8511,997.41656 1579.547,997.48702 1579.2956,997.63425 1579.0443,997.78158 1578.9131,998.04409 1578.9019,998.4218 1578.9371,998.90365 1579.174,999.20777 1579.6126,999.33418 1580.0512,999.46068 1580.4801,999.5151 1580.8995,999.49745 1583.2925,999.42707 1584.7491,999.79842 1585.2693,1000.6115 1585.7896,1001.4247 1585.9976,1003.1022 1585.8936,1005.644 L 1585.8936,1037.2989 C 1585.9976,1039.9848 1585.7896,1041.7391 1585.2693,1042.5619 1584.7491,1043.3846 1583.2925,1043.756 1580.8995,1043.676 1580.4161,1043.6567 1579.9807,1043.6952 1579.5934,1043.7912 1579.206,1043.8872 1579.0011,1044.1562 1578.9787,1044.5979 1578.9899,1045.0093 1579.1212,1045.2814 1579.3725,1045.4143 1579.6238,1045.5471 1579.9279,1045.608 1580.2849,1045.5968 1581.7447,1045.584 1583.2045,1045.5327 1584.6643,1045.4431 1586.1241,1045.3535 1587.5839,1045.3022 1589.0438,1045.2894 1590.4972,1045.3022 1591.9314,1045.3535 1593.3464,1045.4431 1594.7614,1045.5327 1596.1956,1045.584 1597.649,1045.5968 1598.0059,1045.608 1598.31,1045.5471 1598.5613,1045.4143 1598.8126,1045.2814 1598.9439,1045.0093 1598.9551,1044.5979 1598.9278,1044.1898 1598.7326,1043.9305 1598.3692,1043.82 1598.0059,1043.7096 1597.6377,1043.6615 1597.2648,1043.676 1594.7245,1043.7512 1593.1782,1043.3702 1592.626,1042.5331 1592.0738,1041.6959 1591.8529,1039.9512 1591.9634,1037.2989 z"
         style="fill:#ffffff"
         id="path4771"
         inkscape:connector-curvature="0" />
      <path
         d="M 1699.9132,1029.1547 C 1699.8748,1027.0226 1700.0669,1025.6972 1700.4895,1025.1786 1700.912,1024.66 1701.7956,1024.3719 1703.1402,1024.3142 1704.4383,1024.1846 1705.261,1024.0598 1705.6084,1023.9397 1705.9557,1023.8197 1706.1062,1023.5603 1706.0598,1023.1618 1706.0438,1022.7872 1705.9029,1022.5375 1705.6372,1022.4126 1705.3715,1022.2878 1705.077,1022.2302 1704.7537,1022.2398 1703.4107,1022.2526 1702.0822,1022.3038 1700.7681,1022.3934 1699.4539,1022.483 1698.1446,1022.5343 1696.8401,1022.547 1695.4571,1022.5343 1694.0741,1022.483 1692.6911,1022.3934 1691.3081,1022.3038 1689.9251,1022.2525 1688.5422,1022.2397 1688.1659,1022.219 1687.785,1022.2606 1687.3992,1022.3646 1687.0134,1022.4687 1686.8053,1022.76 1686.7749,1023.2386 1686.7957,1023.6468 1686.9654,1023.9061 1687.284,1024.0165 1687.6025,1024.127 1687.945,1024.175 1688.3116,1024.1606 1690.5925,1024.0854 1692.1003,1024.3511 1692.8351,1024.9577 1693.5697,1025.5644 1693.9059,1026.9634 1693.8435,1029.1547 L 1693.8435,1035.5317 C 1693.8739,1036.9387 1693.813,1038.2161 1693.661,1039.3637 1693.5089,1040.5114 1693.0831,1041.3854 1692.3837,1041.9856 1691.2408,1042.8484 1689.8386,1043.4279 1688.1771,1043.724 1686.5156,1044.0201 1684.9982,1044.1578 1683.6248,1044.1369 1678.2238,1044.0468 1673.8984,1042.8526 1670.6487,1040.5543 1667.399,1038.256 1665.0542,1035.3942 1663.6143,1031.969 1662.1744,1028.5438 1661.4687,1025.0959 1661.4972,1021.6251 1661.4246,1019.3795 1661.9112,1016.4523 1662.957,1012.8435 1664.0027,1009.2348 1666.043,1005.9718 1669.0779,1003.0545 1672.1128,1000.1373 1676.5776,998.59306 1682.4723,998.4218 1686.3155,998.50188 1689.1359,999.16776 1690.9335,1000.4194 1692.731,1001.6712 1693.9571,1003.0286 1694.6118,1004.4915 1695.1576,1005.5592 1695.6026,1006.4588 1695.9468,1007.1903 1696.2909,1007.9218 1696.7167,1008.3028 1697.2241,1008.3332 1697.6467,1008.3172 1697.954,1008.1571 1698.1461,1007.8529 1698.3381,1007.5489 1698.415,1007.1967 1698.3766,1006.7965 1698.3413,1006.1403 1698.3157,1005.4744 1698.2998,1004.7989 1698.2837,1004.1234 1698.2581,1003.4575 1698.2229,1002.8012 1698.2773,1001.9049 1698.2069,1001.0661 1698.0116,1000.285 1697.8163,999.5039 1697.1697,998.85723 1696.0716,998.34497 1694.1876,997.61671 1692.1548,997.07568 1689.9731,996.72189 1687.7913,996.36819 1685.7009,996.19211 1683.7017,996.19367 1678.6971,996.22976 1673.9885,997.33576 1669.5759,999.51168 1665.1633,1001.6877 1661.5702,1004.7173 1658.7966,1008.6006 1656.0231,1012.484 1654.5927,1017.0048 1654.5054,1022.1629 1654.5154,1026.209 1655.5796,1030.0515 1657.6982,1033.6906 1659.8168,1037.3297 1662.9299,1040.3072 1667.0376,1042.6231 1671.1453,1044.9389 1676.1877,1046.1351 1682.165,1046.2114 1685.003,1046.2274 1687.8362,1045.9073 1690.6646,1045.251 1693.4929,1044.5947 1696.1148,1043.5063 1698.5303,1041.9856 1698.9832,1041.6991 1699.3065,1041.427 1699.5003,1041.1693 1699.6939,1040.9116 1699.806,1040.5434 1699.8364,1040.0648 1699.9004,1039.6039 1699.926,1038.9124 1699.9132,1037.9904 z"
         style="fill:#ffffff"
         id="path4773"
         inkscape:connector-curvature="0" />
      <path
         d="M 1716.3799,1021.1641 C 1716.4549,1025.8756 1717.7477,1030.1118 1720.2585,1033.8727 1722.7693,1037.6337 1726.0484,1040.6178 1730.0959,1042.8251 1734.1433,1045.0324 1738.5095,1046.1611 1743.1944,1046.2114 1750.6951,1046.0946 1756.9761,1043.7736 1762.0375,1039.2485 1767.0987,1034.7234 1769.7302,1028.6953 1769.932,1021.1641 1769.7302,1013.6362 1767.0987,1007.6209 1762.0375,1003.1182 1756.9761,998.61553 1750.6951,996.30736 1743.1944,996.19367 1738.5095,996.24352 1734.1433,997.3647 1730.0959,999.55721 1726.0484,1001.7498 1722.7693,1004.715 1720.2585,1008.4527 1717.7477,1012.1904 1716.4549,1016.402 1716.3799,1021.0873 z M 1762.9402,1021.1641 C 1762.8463,1026.744 1761.745,1031.2154 1759.6365,1034.5785 1757.5278,1037.9415 1754.9753,1040.3698 1751.9788,1041.8633 1748.9824,1043.3568 1746.1054,1044.089 1743.348,1044.0601 1738.0082,1044.0665 1733.379,1042.1713 1729.4606,1038.3745 1725.5422,1034.5778 1723.4869,1028.841 1723.2948,1021.1641 1723.4917,1013.4873 1725.5566,1007.7505 1729.4894,1003.9537 1733.4223,1000.157 1738.0418,998.26178 1743.348,998.26814 1746.2506,998.24826 1749.1958,999.01374 1752.1837,1000.5646 1755.1716,1002.1155 1757.69,1004.5713 1759.7389,1007.9319 1761.7877,1011.2926 1762.8548,1015.6778 1762.9402,1021.0873 z"
         style="fill:#ffffff"
         id="path4775"
         inkscape:connector-curvature="0" />
      <path
         d="M 1787.4024,1037.0684 C 1787.5065,1039.7975 1787.2984,1041.5999 1786.7782,1042.4754 1786.2579,1043.351 1784.8013,1043.7512 1782.4083,1043.676 1781.72,1043.6583 1781.2142,1043.6936 1780.8909,1043.7816 1780.5676,1043.8696 1780.4075,1044.1161 1780.4107,1044.5211 1780.4219,1044.9021 1780.5532,1045.1774 1780.8045,1045.3471 1781.0558,1045.5167 1781.3599,1045.6 1781.7168,1045.5968 1782.7189,1045.584 1783.7305,1045.5327 1784.7517,1045.4431 1785.773,1045.3535 1786.7846,1045.3022 1787.7866,1045.2894 1790.3989,1045.3022 1793.0112,1045.3535 1795.6235,1045.4431 1798.2358,1045.5327 1800.8481,1045.584 1803.4604,1045.5968 1811.7421,1045.3995 1817.9124,1043.694 1821.9712,1040.4803 1826.03,1037.2666 1828.6888,1033.7286 1829.9475,1029.8661 1831.2062,1026.0036 1831.7763,1023.0005 1831.6578,1020.8568 1831.6577,1017.8636 1831.0431,1014.9183 1829.8138,1012.0211 1828.5844,1009.1239 1826.7405,1006.486 1824.2819,1004.1074 1821.8216,1001.7272 1818.7515,999.82243 1815.0716,998.39299 1811.3916,996.96364 1807.1115,996.23053 1802.231,996.19367 1801.4357,996.19134 1799.9702,996.24731 1797.8345,996.36156 1795.6989,996.47591 1793.3626,996.66277 1790.8257,996.92215 1788.2888,997.18163 1786.0209,997.52784 1784.0218,997.96081 1782.8533,998.22977 1781.9249,998.51789 1781.2366,998.82517 1780.5484,999.13254 1780.1962,999.45908 1780.1802,999.80478 1780.1818,1000.0785 1780.2554,1000.2994 1780.4011,1000.4675 1780.5468,1000.6356 1780.7548,1000.722 1781.0254,1000.7268 1781.4207,1000.6916 1781.9553,1000.5507 1782.6292,1000.3042 1783.3031,1000.0577 1784.049,999.91687 1784.867,999.88161 1786.0819,999.88326 1786.8214,1000.341 1787.0855,1001.255 1787.3496,1002.169 1787.4552,1003.5296 1787.4024,1005.3367 z M 1793.4722,1003.8001 C 1793.3169,1001.6408 1793.6274,1000.1202 1794.4038,999.23814 1795.1801,998.35622 1797.3538,997.93044 1800.9249,997.96081 1807.9982,998.05049 1813.6934,1000.1954 1818.0104,1004.3955 1822.3274,1008.5957 1824.5459,1014.3133 1824.666,1021.5483 1824.6596,1024.5848 1824.1154,1027.5396 1823.0334,1030.4128 1821.9513,1033.286 1820.3698,1035.8375 1818.289,1038.0672 1815.9503,1040.4378 1813.4053,1042.0545 1810.6538,1042.9172 1807.9022,1043.78 1804.9153,1044.1866 1801.6932,1044.1369 1798.4262,1044.2122 1796.2205,1043.6583 1795.076,1042.4754 1793.9315,1041.2926 1793.3969,1039.0292 1793.4722,1035.6854 z"
         style="fill:#ffffff"
         id="path4777"
         inkscape:connector-curvature="0" />
      <path
         d="M 2099.2234,1037.2989 C 2099.3274,1039.9848 2099.1194,1041.7391 2098.5992,1042.5619 2098.0789,1043.3846 2096.6223,1043.756 2094.2293,1043.676 2093.7459,1043.6567 2093.3105,1043.6952 2092.9232,1043.7912 2092.5358,1043.8872 2092.3309,1044.1562 2092.3085,1044.5979 2092.3197,1045.0093 2092.451,1045.2814 2092.7023,1045.4143 2092.9536,1045.5471 2093.2577,1045.608 2093.6147,1045.5968 2095.0745,1045.584 2096.5343,1045.5327 2097.9942,1045.4431 2099.454,1045.3535 2100.9138,1045.3022 2102.3736,1045.2894 2103.827,1045.3022 2105.2612,1045.3535 2106.6762,1045.4431 2108.0912,1045.5327 2109.5254,1045.584 2110.9788,1045.5968 2111.3357,1045.608 2111.6398,1045.5471 2111.8911,1045.4143 2112.1424,1045.2814 2112.2736,1045.0093 2112.2849,1044.5979 2112.2576,1044.1898 2112.0624,1043.9305 2111.699,1043.82 2111.3357,1043.7096 2110.9675,1043.6615 2110.5946,1043.676 2108.0543,1043.7608 2106.508,1043.399 2105.9558,1042.5907 2105.4036,1041.7824 2105.1827,1040.0184 2105.2932,1037.2989 L 2105.2932,1028.6937 C 2105.2259,1026.8641 2105.3219,1025.5484 2105.5813,1024.7464 2105.8406,1023.9445 2106.436,1022.8785 2107.3676,1021.5483 2110.5177,1016.7975 2113.6678,1012.0852 2116.818,1007.4112 2117.9064,1005.6697 2119.1869,1003.9474 2120.6596,1002.2442 2122.1322,1000.5411 2123.9505,999.62555 2126.1147,999.49745 2126.6108,999.5167 2127.0974,999.47829 2127.5745,999.3822 2128.0514,999.28621 2128.3075,999.01729 2128.3428,998.57546 2128.314,998.15773 2128.1219,997.86001 2127.7666,997.68229 2127.4112,997.50466 2127.0654,997.41823 2126.7293,997.42298 2125.5401,997.43577 2124.3652,997.48695 2123.2048,997.57653 2122.0443,997.6662 2120.8886,997.71742 2119.7377,997.73018 2118.5788,997.71742 2117.4007,997.6662 2116.2034,997.57651 2115.0061,997.48692 2113.828,997.4357 2112.6692,997.42285 2112.2929,997.41496 2111.9119,997.50783 2111.5262,997.70148 2111.1404,997.89523 2110.9323,998.23777 2110.9019,998.72913 2110.9307,999.06371 2111.1612,999.2782 2111.5934,999.3726 2112.0255,999.46708 2112.4865,999.5087 2112.9764,999.49745 2114.1336,999.45748 2115.142,999.53751 2116.0016,999.73755 2116.8612,999.93768 2117.3126,1000.4979 2117.3558,1001.4183 2117.303,1002.2907 2116.7555,1003.5424 2115.7135,1005.1734 2114.6715,1006.8046 2113.4517,1008.6517 2112.0544,1010.7149 2110.7146,1012.8071 2109.2644,1015.0576 2107.7038,1017.4666 2106.1431,1019.8756 2105.1347,1021.185 2104.6785,1021.3946 2104.1807,1021.1834 2103.121,1019.858 2101.4996,1017.4186 2099.8781,1014.9792 2098.3766,1012.6934 2096.9953,1010.5613 2095.7099,1008.7093 2094.439,1006.8622 2093.1825,1005.0198 2091.9259,1003.1774 2091.2505,1001.8489 2091.156,1001.0341 2091.2056,1000.3314 2091.5674,999.89286 2092.2413,999.71834 2092.9152,999.54391 2093.6035,999.47028 2094.3062,999.49745 2095.1913,999.52151 2095.8604,999.47349 2096.3134,999.35339 2096.7664,999.23339 2096.9937,998.89725 2096.9953,998.34497 2096.9761,998.00407 2096.8224,997.76397 2096.5343,997.62466 2096.2462,997.48545 2095.9388,997.41823 2095.6123,997.42298 2093.8452,997.43577 2092.078,997.48695 2090.3109,997.57653 2088.5438,997.6662 2086.7766,997.71742 2085.0095,997.73018 2083.857,997.71742 2082.7045,997.6662 2081.552,997.57651 2080.3995,997.48692 2079.2471,997.4357 2078.0946,997.42285 2077.6944,997.41016 2077.3423,997.47422 2077.0381,997.61504 2076.734,997.75596 2076.5739,998.05049 2076.5579,998.49863 2076.5771,998.94367 2076.75,999.22538 2077.0765,999.34379 2077.4031,999.46228 2077.768,999.5135 2078.1714,999.49745 2080.1802,999.42227 2081.6753,999.78402 2082.6565,1000.5827 2083.6377,1001.3815 2084.9598,1003.0686 2086.6229,1005.644 2090.17,1010.8046 2093.6787,1016.0036 2097.149,1021.241 2098.0421,1022.4815 2098.6183,1023.4771 2098.8777,1024.2278 2099.137,1024.9785 2099.2522,1026.1086 2099.2234,1027.618 z"
         style="fill:#ffffff"
         id="path4779"
         inkscape:connector-curvature="0" />
      <path
         d="M 2141.6534,1037.0684 C 2141.7574,1039.7239 2141.5493,1041.4814 2141.0291,1042.341 2140.5089,1043.2006 2139.0523,1043.5943 2136.6593,1043.5223 2136.2399,1043.5079 2135.8109,1043.5559 2135.3723,1043.6663 2134.9338,1043.7768 2134.6969,1044.0361 2134.6616,1044.4443 2134.6729,1044.862 2134.8041,1045.1598 2135.0554,1045.3374 2135.3067,1045.5151 2135.6108,1045.6016 2135.9678,1045.5968 2136.6113,1045.5952 2137.2451,1045.5792 2137.8694,1045.5487 2138.4936,1045.5183 2139.1659,1045.4831 2139.8862,1045.4431 2140.5697,1045.4031 2141.354,1045.3679 2142.2392,1045.3374 2143.1244,1045.307 2144.1584,1045.291 2145.3413,1045.2894 L 2170.6959,1045.2894 C 2171.0304,1045.315 2171.2641,1045.2638 2171.397,1045.1358 2171.5299,1045.0077 2171.6291,1044.6492 2171.6948,1044.0601 2171.8548,1042.8308 2172.0341,1041.6015 2172.2326,1040.3722 2172.431,1039.1429 2172.6103,1037.9135 2172.7704,1036.6842 2172.8168,1036.3769 2172.8776,1036.0696 2172.9529,1035.7622 2173.0281,1035.4549 2173.0697,1035.1476 2173.0777,1034.8403 2173.0905,1034.2896 2172.8344,1034.0079 2172.3094,1033.9951 2171.9076,1034.0127 2171.5971,1034.2656 2171.3778,1034.7538 2171.1585,1035.242 2170.9056,1035.8599 2170.6191,1036.6074 2169.2281,1039.8199 2167.4577,1041.808 2165.3081,1042.5715 2163.1584,1043.335 2160.4468,1043.6519 2157.1735,1043.5223 2154.1242,1043.6664 2151.7904,1043.359 2150.1721,1042.6003 2148.5539,1041.8416 2147.7375,1039.7671 2147.7231,1036.3769 L 2147.7231,1023.0081 C 2147.6911,1021.7564 2147.9472,1020.9945 2148.4914,1020.7223 2149.0357,1020.4502 2150.0601,1020.3414 2151.5647,1020.3958 2155.7921,1020.3526 2158.6893,1020.5351 2160.2564,1020.9432 2161.8234,1021.3514 2162.7422,1022.2446 2163.0127,1023.6228 2163.1728,1024.3815 2163.3328,1025.169 2163.4929,1025.9853 2163.653,1026.8017 2164.0051,1027.2435 2164.5494,1027.3107 2164.7526,1027.3299 2164.9415,1027.2531 2165.116,1027.0802 2165.2904,1026.9073 2165.3833,1026.5232 2165.3945,1025.9277 2165.3817,1024.7048 2165.3305,1023.5011 2165.2409,1022.3165 2165.1513,1021.1321 2165.1001,1019.9284 2165.0873,1018.7054 2165.1001,1017.6234 2165.1513,1016.5221 2165.2409,1015.4016 2165.3305,1014.2812 2165.3818,1013.1799 2165.3946,1012.0978 2165.3833,1011.797 2165.2905,1011.5921 2165.116,1011.4833 2164.9415,1011.3745 2164.7526,1011.3232 2164.5494,1011.3296 2164.0355,1011.3873 2163.6994,1011.7714 2163.5409,1012.4821 2163.3824,1013.1928 2163.2576,1013.8843 2163.1664,1014.5566 2162.9567,1016.3237 2162.2812,1017.3994 2161.1399,1017.7835 2159.9986,1018.1677 2157.5752,1018.3214 2153.8697,1018.2445 2150.9581,1018.3198 2149.1749,1018.1693 2148.5203,1017.7931 2147.8656,1017.417 2147.5999,1016.3637 2147.7231,1014.6334 L 2147.7231,1003.4927 C 2147.7071,1002.654 2147.7391,1001.9689 2147.8192,1001.4375 2147.8992,1000.9061 2148.1233,1000.4899 2148.4914,1000.1889 2148.8932,999.89126 2149.5879,999.69918 2150.5755,999.6127 2151.5631,999.52631 2152.9685,999.48789 2154.7917,999.49745 2159.2511,999.45428 2162.3564,999.80963 2164.1076,1000.5635 2165.8587,1001.3175 2167.1584,1002.7292 2168.0068,1004.7989 2168.1989,1005.1895 2168.3909,1005.5992 2168.5831,1006.0282 2168.7751,1006.4572 2168.9672,1006.867 2169.1593,1007.2575 2169.3545,1007.6449 2169.5594,1007.9458 2169.774,1008.1603 2169.9884,1008.3748 2170.1933,1008.4837 2170.3886,1008.4868 2170.7199,1008.4676 2170.9216,1008.2948 2170.9937,1007.9682 2171.0657,1007.6417 2171.0945,1007.2767 2171.0801,1006.8733 L 2171.0801,1000.2658 C 2171.1025,999.13895 2171.0577,998.37703 2170.9456,997.98001 2170.8336,997.58309 2170.5198,997.39742 2170.0045,997.42298 2166.7439,997.43577 2163.4882,997.48695 2160.2372,997.57653 2156.9862,997.6662 2153.7113,997.71742 2150.4123,997.73018 2148.0241,997.71742 2145.6167,997.6662 2143.19,997.57651 2140.7634,997.48692 2138.356,997.4357 2135.9678,997.42285 2135.6108,997.42296 2135.3067,997.51904 2135.0554,997.71108 2134.8041,997.90323 2134.6729,998.19135 2134.6616,998.57546 2134.6969,999.01729 2134.9338,999.28621 2135.3723,999.3822 2135.8109,999.47829 2136.2399,999.5167 2136.6593,999.49745 2139.0523,999.42867 2140.5089,999.81603 2141.0291,1000.6595 2141.5493,1001.5031 2141.7574,1003.2158 2141.6534,1005.7977 z"
         style="fill:#ffffff"
         id="path4781"
         inkscape:connector-curvature="0" />
      <path
         d="M 2219.3326,1037.2989 C 2219.4366,1039.9512 2219.2285,1041.6959 2218.7083,1042.5331 2218.1881,1043.3702 2216.7315,1043.7512 2214.3385,1043.676 2213.6166,1043.6599 2213.1012,1043.692 2212.7922,1043.772 2212.4833,1043.852 2212.3328,1044.0761 2212.3408,1044.4443 2212.3504,1044.862 2212.4849,1045.1598 2212.7442,1045.3374 2213.0035,1045.5151 2213.3301,1045.6016 2213.7238,1045.5968 2214.8427,1045.584 2215.9664,1045.5327 2217.0949,1045.4431 2218.2233,1045.3535 2219.3278,1045.3022 2220.4083,1045.2894 2221.5543,1045.3022 2222.6812,1045.3535 2223.7889,1045.4431 2224.8965,1045.5327 2226.0234,1045.584 2227.1695,1045.5968 2227.56,1045.6016 2227.8737,1045.5151 2228.1107,1045.3374 2228.3475,1045.1598 2228.4692,1044.862 2228.4756,1044.4443 2228.466,1044.1097 2228.3507,1043.8952 2228.1299,1043.8008 2227.9089,1043.7064 2227.64,1043.6647 2227.3231,1043.676 2224.562,1043.7752 2222.8812,1043.4423 2222.281,1042.6771 2221.6807,1041.912 2221.4406,1040.1193 2221.5607,1037.2989 L 2221.5607,1004.5684 2221.5607,1002.5707 C 2221.7416,1002.7645 2222.0329,1003.1262 2222.4347,1003.656 2222.8364,1004.1859 2223.1854,1004.6436 2223.4815,1005.0294 2227.9025,1010.787 2232.3332,1016.5398 2236.7735,1022.2878 2241.2137,1028.0358 2245.6444,1033.8078 2250.0654,1039.6038 2250.6833,1040.4138 2251.3107,1041.2333 2251.9478,1042.0625 2252.5849,1042.8916 2253.2123,1043.7112 2253.8302,1044.5211 2254.0255,1044.8669 2254.288,1045.251 2254.6178,1045.6736 2254.9474,1046.0962 2255.3252,1046.3267 2255.751,1046.3651 2256.0087,1046.3715 2256.1656,1046.2626 2256.2216,1046.0385 2256.2776,1045.8144 2256.3,1045.4367 2256.2889,1044.9053 L 2256.2889,1005.8745 C 2256.1848,1003.2895 2256.3929,1001.564 2256.9131,1000.698 2257.4333,999.83203 2258.8899,999.43187 2261.2829,999.49745 2261.7023,999.5151 2262.1312,999.47989 2262.5699,999.39181 2263.0084,999.30381 2263.2453,999.05731 2263.2806,998.6523 2263.2693,998.23137 2263.1381,997.92084 2262.8868,997.72071 2262.6355,997.52067 2262.3313,997.42143 2261.9744,997.42298 2260.8652,997.43577 2259.7608,997.48695 2258.6612,997.57653 2257.5615,997.6662 2256.4378,997.71742 2255.2902,997.73018 2254.144,997.71742 2253.0172,997.6662 2251.9095,997.57651 2250.8018,997.48692 2249.675,997.4357 2248.5289,997.42285 2248.1351,997.42136 2247.8085,997.52064 2247.5492,997.72069 2247.2898,997.92083 2247.1554,998.23137 2247.1458,998.6523 2247.1826,999.05731 2247.4163,999.30381 2247.8469,999.3918 2248.2775,999.47989 2248.684,999.5151 2249.0666,999.49745 2251.4964,999.42707 2252.9754,999.81763 2253.5037,1000.6691 2254.0319,1001.5207 2254.2432,1003.2559 2254.1376,1005.8745 L 2254.1376,1034.3793 2254.1376,1035.3781 C 2253.7149,1034.8371 2253.2924,1034.2864 2252.8698,1033.7262 2252.4472,1033.166 2252.0246,1032.6153 2251.6021,1032.0743 2247.4483,1026.7761 2243.309,1021.4683 2239.1841,1016.1508 2235.0591,1010.8334 2230.9774,1005.4872 2226.939,1000.1121 2226.486,999.46228 2226.009,998.86043 2225.508,998.30655 2225.0069,997.75276 2224.4339,997.45824 2223.7888,997.42298 2223.1342,997.42937 2222.3499,997.45494 2221.4359,997.4997 2220.5219,997.54455 2219.7184,997.57016 2219.0253,997.57652 2218.337,997.57016 2217.543,997.54455 2216.6435,997.49968 2215.7439,997.45491 2214.9499,997.4293 2214.2617,997.42285 2213.8151,997.40215 2213.4021,997.46301 2213.0227,997.60544 2212.6434,997.74796 2212.4417,998.09691 2212.4177,998.6523 2212.4545,999.05731 2212.6882,999.30381 2213.1188,999.3918 2213.5494,999.47989 2213.9559,999.5151 2214.3385,999.49745 2216.7315,999.41746 2218.1881,999.78882 2218.7083,1000.6115 2219.2285,1001.4343 2219.4366,1003.1886 2219.3326,1005.8745 z"
         style="fill:#ffffff"
         id="path4783"
         inkscape:connector-curvature="0" />
      <path
         d="M 2272.1396,1021.1641 C 2272.2146,1025.8756 2273.5074,1030.1118 2276.0182,1033.8727 2278.529,1037.6337 2281.8082,1040.6178 2285.8556,1042.8251 2289.903,1045.0324 2294.2692,1046.1611 2298.9541,1046.2114 2306.4548,1046.0946 2312.7358,1043.7736 2317.7972,1039.2485 2322.8584,1034.7234 2325.4899,1028.6953 2325.6917,1021.1641 2325.4899,1013.6362 2322.8584,1007.6209 2317.7972,1003.1182 2312.7358,998.61553 2306.4548,996.30736 2298.9541,996.19367 2294.2692,996.24352 2289.903,997.3647 2285.8556,999.55721 2281.8082,1001.7498 2278.529,1004.715 2276.0182,1008.4527 2273.5074,1012.1904 2272.2146,1016.402 2272.1396,1021.0873 z M 2318.6999,1021.1641 C 2318.606,1026.744 2317.5047,1031.2154 2315.3962,1034.5785 2313.2875,1037.9415 2310.735,1040.3698 2307.7386,1041.8633 2304.7421,1043.3568 2301.8651,1044.089 2299.1077,1044.0601 2293.7679,1044.0665 2289.1387,1042.1713 2285.2203,1038.3745 2281.3019,1034.5778 2279.2466,1028.841 2279.0545,1021.1641 2279.2514,1013.4873 2281.3163,1007.7505 2285.2491,1003.9537 2289.182,1000.157 2293.8015,998.26178 2299.1077,998.26814 2302.0103,998.24826 2304.9555,999.01374 2307.9434,1000.5646 2310.9313,1002.1155 2313.4497,1004.5713 2315.4986,1007.9319 2317.5474,1011.2926 2318.6145,1015.6778 2318.6999,1021.0873 z"
         style="fill:#ffffff"
         id="path4785"
         inkscape:connector-curvature="0" />
      <path
         d="M 2353.3808,1037.2989 C 2353.4848,1039.9848 2353.2767,1041.7391 2352.7565,1042.5619 2352.2363,1043.3846 2350.7796,1043.756 2348.3867,1043.676 2347.9032,1043.6567 2347.4679,1043.6952 2347.0805,1043.7912 2346.6931,1043.8872 2346.4883,1044.1562 2346.4659,1044.5979 2346.477,1045.0093 2346.6083,1045.2814 2346.8596,1045.4143 2347.1109,1045.5471 2347.415,1045.608 2347.772,1045.5968 2349.2318,1045.584 2350.6916,1045.5327 2352.1515,1045.4431 2353.6113,1045.3535 2355.0711,1045.3022 2356.5309,1045.2894 2357.9843,1045.3022 2359.4185,1045.3535 2360.8335,1045.4431 2362.2485,1045.5327 2363.6827,1045.584 2365.1362,1045.5968 2365.493,1045.608 2365.7971,1045.5471 2366.0485,1045.4143 2366.2997,1045.2814 2366.431,1045.0093 2366.4422,1044.5979 2366.415,1044.1898 2366.2197,1043.9305 2365.8564,1043.82 2365.493,1043.7096 2365.1248,1043.6615 2364.7519,1043.676 2362.2116,1043.7608 2360.6654,1043.399 2360.1132,1042.5907 2359.5609,1041.7824 2359.34,1040.0184 2359.4505,1037.2989 L 2359.4505,1003.2622 C 2359.3928,1001.5255 2359.5081,1000.4467 2359.7962,1000.0257 2360.0843,999.60474 2360.8911,999.42867 2362.2165,999.49745 L 2367.3642,999.49745 C 2370.2566,999.44788 2372.1934,999.95049 2373.1746,1001.0053 2374.1558,1002.0602 2375.0362,1003.965 2375.8157,1006.7197 2375.8845,1006.9662 2375.9774,1007.2031 2376.0943,1007.4304 2376.2111,1007.6577 2376.4,1007.7794 2376.6609,1007.7953 2377.069,1007.7794 2377.3283,1007.6385 2377.4388,1007.3727 2377.5492,1007.1071 2377.5973,1006.8126 2377.5829,1006.4892 2377.7365,1003.3263 2377.8902,1000.2018 2378.0439,997.11565 2378.047,996.99405 2378.0598,996.81477 2378.0823,996.57783 2378.1047,996.34098 2378.1175,996.08487 2378.1207,995.80951 2378.1271,995.4462 2378.0759,995.11646 2377.967,994.82029 2377.8582,994.52422 2377.6533,994.36735 2377.3524,994.34969 2376.9826,994.36575 2376.7233,994.50661 2376.5745,994.77227 2376.4256,995.03803 2376.3007,995.33256 2376.1999,995.65584 2375.9278,996.50265 2375.454,997.01806 2374.7785,997.20209 2374.103,997.38621 2373.0145,997.45984 2371.5131,997.42298 L 2342.2401,997.42298 C 2340.8779,997.39742 2340.0296,997.16052 2339.695,996.71228 2339.3605,996.26414 2339.1844,995.75833 2339.1668,995.19485 2339.1668,994.958 2339.1092,994.75951 2338.9939,994.5994 2338.8787,994.43938 2338.7058,994.35615 2338.4753,994.34969 2338.1408,994.36095 2337.9071,994.473 2337.7742,994.68583 2337.6414,994.89877 2337.5421,995.14528 2337.4765,995.42534 2336.4777,998.71637 2335.4789,1002.0458 2334.48,1005.4135 2334.3936,1005.6249 2334.2976,1005.913 2334.1919,1006.2779 2334.0863,1006.6429 2334.0286,1006.9694 2334.019,1007.2575 2334.0174,1007.5313 2334.0783,1007.7521 2334.2015,1007.9202 2334.3248,1008.0883 2334.5201,1008.1747 2334.7874,1008.1795 2335.1747,1008.1363 2335.5141,1007.8962 2335.8054,1007.4592 2336.0967,1007.0222 2336.3208,1006.6477 2336.4777,1006.3355 2338.2976,1003.1902 2340.2665,1001.2214 2342.3841,1000.429 2344.5018,999.63675 2347.6039,999.30061 2351.6904,999.42062 2352.2651,999.39185 2352.6908,999.52631 2352.9678,999.82399 2353.2447,1000.1218 2353.3823,1000.7556 2353.3808,1001.7256 z"
         style="fill:#ffffff"
         id="path4787"
         inkscape:connector-curvature="0" />
      <path
         d="M 2461.6032,1029.1547 C 2461.5648,1027.0226 2461.7569,1025.6972 2462.1795,1025.1786 2462.602,1024.66 2463.4856,1024.3719 2464.8302,1024.3142 2466.1283,1024.1846 2466.951,1024.0598 2467.2984,1023.9397 2467.6457,1023.8197 2467.7962,1023.5603 2467.7498,1023.1618 2467.7338,1022.7872 2467.5929,1022.5375 2467.3272,1022.4126 2467.0615,1022.2878 2466.767,1022.2302 2466.4437,1022.2398 2465.1007,1022.2526 2463.7722,1022.3038 2462.4581,1022.3934 2461.1439,1022.483 2459.8346,1022.5343 2458.5301,1022.547 2457.1471,1022.5343 2455.7641,1022.483 2454.3811,1022.3934 2452.9981,1022.3038 2451.6151,1022.2525 2450.2322,1022.2397 2449.8559,1022.219 2449.475,1022.2606 2449.0892,1022.3646 2448.7034,1022.4687 2448.4953,1022.76 2448.4649,1023.2386 2448.4857,1023.6468 2448.6554,1023.9061 2448.974,1024.0165 2449.2925,1024.127 2449.635,1024.175 2450.0016,1024.1606 2452.2825,1024.0854 2453.7903,1024.3511 2454.5251,1024.9577 2455.2597,1025.5644 2455.5959,1026.9634 2455.5335,1029.1547 L 2455.5335,1035.5317 C 2455.5639,1036.9387 2455.5031,1038.2161 2455.351,1039.3637 2455.1989,1040.5114 2454.7731,1041.3854 2454.0737,1041.9856 2452.9308,1042.8484 2451.5286,1043.4279 2449.8671,1043.724 2448.2056,1044.0201 2446.6882,1044.1578 2445.3148,1044.1369 2439.9138,1044.0468 2435.5884,1042.8526 2432.3387,1040.5543 2429.089,1038.256 2426.7442,1035.3942 2425.3043,1031.969 2423.8644,1028.5438 2423.1587,1025.0959 2423.1872,1021.6251 2423.1146,1019.3795 2423.6012,1016.4523 2424.647,1012.8435 2425.6927,1009.2348 2427.733,1005.9718 2430.7679,1003.0545 2433.8028,1000.1373 2438.2676,998.59306 2444.1623,998.4218 2448.0055,998.50188 2450.8259,999.16776 2452.6235,1000.4194 2454.421,1001.6712 2455.6471,1003.0286 2456.3018,1004.4915 2456.8476,1005.5592 2457.2926,1006.4588 2457.6368,1007.1903 2457.9809,1007.9218 2458.4067,1008.3028 2458.9141,1008.3332 2459.3367,1008.3172 2459.644,1008.1571 2459.8361,1007.8529 2460.0281,1007.5489 2460.105,1007.1967 2460.0666,1006.7965 2460.0313,1006.1403 2460.0057,1005.4744 2459.9898,1004.7989 2459.9737,1004.1234 2459.9481,1003.4575 2459.9129,1002.8012 2459.9673,1001.9049 2459.8969,1001.0661 2459.7017,1000.285 2459.5063,999.5039 2458.8597,998.85723 2457.7616,998.34497 2455.8776,997.61671 2453.8448,997.07568 2451.6631,996.72189 2449.4813,996.36819 2447.3909,996.19211 2445.3917,996.19367 2440.3871,996.22976 2435.6785,997.33576 2431.2659,999.51168 2426.8533,1001.6877 2423.2602,1004.7173 2420.4866,1008.6006 2417.7131,1012.484 2416.2827,1017.0048 2416.1954,1022.1629 2416.2054,1026.209 2417.2697,1030.0515 2419.3882,1033.6906 2421.5068,1037.3297 2424.6199,1040.3072 2428.7276,1042.6231 2432.8353,1044.9389 2437.8777,1046.1351 2443.855,1046.2114 2446.693,1046.2274 2449.5262,1045.9073 2452.3546,1045.251 2455.1829,1044.5947 2457.8048,1043.5063 2460.2203,1041.9856 2460.6732,1041.6991 2460.9965,1041.427 2461.1903,1041.1693 2461.3839,1040.9116 2461.496,1040.5434 2461.5264,1040.0648 2461.5904,1039.6039 2461.616,1038.9124 2461.6032,1037.9904 z"
         style="fill:#ffffff"
         id="path4789"
         inkscape:connector-curvature="0" />
      <path
         d="M 2490.1326,1005.7977 C 2490.0285,1003.115 2490.2366,1001.3735 2490.7569,1000.5731 2491.2771,999.77281 2492.7337,999.41426 2495.1267,999.49745 2495.5124,999.5183 2495.9318,999.47669 2496.3848,999.3726 2496.8378,999.2686 2497.0843,998.97728 2497.1243,998.49863 2497.1131,998.0841 2496.9818,997.79919 2496.7306,997.64387 2496.4792,997.48866 2496.1751,997.41503 2495.8182,997.42298 2494.3584,997.43577 2492.8986,997.48695 2491.4388,997.57653 2489.979,997.6662 2488.5191,997.71742 2487.0593,997.73018 2485.6059,997.71742 2484.1717,997.6662 2482.7567,997.57651 2481.3417,997.48692 2479.9075,997.4357 2478.4541,997.42285 2478.0635,997.41496 2477.7498,997.48862 2477.5129,997.64386 2477.276,997.79918 2477.1544,998.08411 2477.148,998.49863 2477.1848,998.97728 2477.4185,999.2686 2477.849,999.3726 2478.2796,999.47669 2478.6862,999.5183 2479.0688,999.49745 2481.4618,999.41426 2482.9184,999.77281 2483.4386,1000.5731 2483.9588,1001.3735 2484.1669,1003.115 2484.0629,1005.7977 L 2484.0629,1029.001 C 2483.9732,1032.2216 2484.1717,1034.9043 2484.6583,1037.0492 2485.1449,1039.1941 2486.4574,1041.0701 2488.5959,1042.6771 2490.5552,1044.0345 2492.8409,1044.9693 2495.4532,1045.4815 2498.0655,1045.9937 2500.5433,1046.237 2502.8867,1046.2114 2505.467,1046.2482 2508.0281,1045.9825 2510.57,1045.4143 2513.1118,1044.846 2515.3655,1043.7544 2517.3312,1042.1393 2519.3224,1040.3386 2520.5453,1038.4274 2520.9999,1036.4057 2521.4545,1034.3841 2521.6401,1032.2232 2521.557,1029.923 L 2521.557,1005.9514 C 2521.5169,1004.1362 2521.6545,1002.6188 2521.9699,1001.399 2522.2852,1000.1794 2523.4793,999.54551 2525.5522,999.49745 2525.9571,999.51991 2526.4534,999.47509 2527.0408,999.36299 2527.6282,999.25099 2527.9516,998.93726 2528.0109,998.4218 2527.982,997.97686 2527.7899,997.69514 2527.4346,997.57665 2527.0792,997.45824 2526.7335,997.40702 2526.3974,997.42298 2525.3986,997.43577 2524.3998,997.48695 2523.401,997.57653 2522.4022,997.6662 2521.4034,997.71742 2520.4046,997.73018 2519.2521,997.71742 2518.0996,997.6662 2516.9471,997.57651 2515.7946,997.48692 2514.6421,997.4357 2513.4897,997.42285 2513.0862,997.41496 2512.7212,997.48862 2512.3947,997.64386 2512.0681,997.79918 2511.8953,998.08411 2511.8761,998.49863 2511.9065,998.94367 2512.1146,999.22538 2512.5004,999.34379 2512.8861,999.46228 2513.267,999.5135 2513.6432,999.49745 2516.1691,999.41746 2517.7825,999.96169 2518.4837,1001.1301 2519.1847,1002.2987 2519.492,1004.5716 2519.4057,1007.949 L 2519.4057,1029.923 C 2519.4632,1031.9863 2519.348,1033.8527 2519.0599,1035.5221 2518.7717,1037.1916 2517.965,1038.7315 2516.6397,1040.1417 2515.0502,1041.7263 2513.139,1042.8212 2510.9061,1043.4262 2508.6731,1044.0313 2506.4354,1044.3194 2504.1929,1044.2906 2501.9743,1044.3274 2499.6694,1043.9849 2497.278,1043.263 2494.8866,1042.5411 2493.0426,1041.2189 2491.7461,1039.2965 2490.9729,1037.9456 2490.5023,1036.2681 2490.3343,1034.264 2490.1662,1032.26 2490.099,1030.1983 2490.1326,1028.079 z"
         style="fill:#ffffff"
         id="path4791"
         inkscape:connector-curvature="0" />
      <path
         d="M 2548.7789,1005.7977 C 2548.6748,1003.115 2548.8829,1001.3735 2549.4032,1000.5731 2549.9234,999.77281 2551.38,999.41426 2553.773,999.49745 2554.1587,999.5183 2554.5781,999.47669 2555.0311,999.3726 2555.4841,999.2686 2555.7306,998.97728 2555.7706,998.49863 2555.7594,998.0841 2555.6282,997.79919 2555.3769,997.64387 2555.1255,997.48866 2554.8214,997.41503 2554.4645,997.42298 2553.0047,997.43577 2551.5449,997.48695 2550.0851,997.57653 2548.6253,997.6662 2547.1655,997.71742 2545.7057,997.73018 2544.2522,997.71742 2542.818,997.6662 2541.403,997.57651 2539.988,997.48692 2538.5538,997.4357 2537.1004,997.42285 2536.7099,997.41496 2536.3961,997.48862 2536.1592,997.64386 2535.9223,997.79918 2535.8007,998.08411 2535.7943,998.49863 2535.8311,998.97728 2536.0648,999.2686 2536.4954,999.3726 2536.9259,999.47669 2537.3325,999.5183 2537.7151,999.49745 2540.1081,999.41426 2541.5647,999.77281 2542.0849,1000.5731 2542.6051,1001.3735 2542.8132,1003.115 2542.7092,1005.7977 L 2542.7092,1037.2989 C 2542.8132,1039.9848 2542.6051,1041.7391 2542.0849,1042.5619 2541.5647,1043.3846 2540.1081,1043.756 2537.7151,1043.676 2537.2317,1043.6567 2536.7963,1043.6952 2536.4089,1043.7912 2536.0216,1043.8872 2535.8167,1044.1562 2535.7943,1044.5979 2535.8055,1045.0093 2535.9367,1045.2814 2536.188,1045.4143 2536.4393,1045.5471 2536.7435,1045.608 2537.1004,1045.5968 2538.5602,1045.584 2540.02,1045.5327 2541.4799,1045.4431 2542.9397,1045.3535 2544.3995,1045.3022 2545.8593,1045.2894 2547.3127,1045.3022 2548.7469,1045.3535 2550.1619,1045.4431 2551.5769,1045.5327 2553.0111,1045.584 2554.4645,1045.5968 2554.8214,1045.608 2555.1256,1045.5471 2555.3769,1045.4143 2555.6282,1045.2814 2555.7594,1045.0093 2555.7706,1044.5979 2555.7434,1044.1898 2555.5481,1043.9305 2555.1848,1043.82 2554.8214,1043.7096 2554.4533,1043.6615 2554.0803,1043.676 2551.54,1043.7512 2549.9938,1043.3702 2549.4416,1042.5331 2548.8893,1041.6959 2548.6684,1039.9512 2548.7789,1037.2989 z"
         style="fill:#ffffff"
         id="path4793"
         inkscape:connector-curvature="0" />
      <path
         d="M 2572.243,1037.222 C 2572.3455,1039.9048 2572.1406,1041.6463 2571.6284,1042.4466 2571.1162,1043.247 2569.682,1043.6055 2567.3258,1043.5223 2566.9064,1043.5015 2566.4774,1043.5431 2566.0388,1043.6471 2565.6003,1043.7512 2565.3634,1044.0425 2565.3282,1044.5211 2565.3394,1044.9021 2565.4706,1045.1774 2565.7219,1045.3471 2565.9732,1045.5167 2566.2773,1045.6 2566.6343,1045.5968 2567.934,1045.584 2569.2146,1045.5327 2570.4759,1045.4431 2571.7373,1045.3535 2573.0178,1045.3022 2574.3175,1045.2894 2578.0119,1045.3022 2581.7255,1045.3535 2585.4582,1045.4431 2589.191,1045.5327 2592.9046,1045.584 2596.5989,1045.5968 2597.5849,1045.6 2598.1675,1045.3631 2598.3468,1044.8861 2598.526,1044.4091 2598.6093,1043.6728 2598.5965,1042.6771 2598.6653,1041.331 2598.8157,1039.9896 2599.0479,1038.653 2599.2799,1037.3165 2599.4112,1035.9943 2599.4416,1034.6866 2599.456,1034.4065 2599.4272,1034.16 2599.3552,1033.9471 2599.2831,1033.7342 2599.0815,1033.6222 2598.7502,1033.6109 2598.4508,1033.6238 2598.1851,1033.8478 2597.953,1034.2832 2597.7209,1034.7186 2597.4744,1035.2885 2597.2135,1035.9927 2596.5572,1037.9536 2595.3535,1039.6791 2593.6024,1041.1693 2591.8512,1042.6595 2589.1109,1043.4439 2585.3814,1043.5223 2582.0615,1043.5287 2580.0191,1042.8244 2579.254,1041.4094 2578.4888,1039.9944 2578.1751,1037.8303 2578.3128,1034.9171 L 2578.3128,1005.7977 C 2578.2087,1003.115 2578.4168,1001.3735 2578.9371,1000.5731 2579.4573,999.77281 2580.9139,999.41426 2583.3069,999.49745 2583.6926,999.5183 2584.112,999.47669 2584.565,999.3726 2585.018,999.2686 2585.2645,998.97728 2585.3045,998.49863 2585.2933,998.0841 2585.162,997.79919 2584.9108,997.64387 2584.6594,997.48866 2584.3553,997.41503 2583.9984,997.42298 2582.5386,997.43577 2581.0788,997.48695 2579.619,997.57653 2578.1592,997.6662 2576.6993,997.71742 2575.2395,997.73018 2573.7861,997.71742 2572.3519,997.6662 2570.9369,997.57651 2569.5219,997.48692 2568.0877,997.4357 2566.6343,997.42285 2566.2437,997.41496 2565.93,997.48862 2565.6931,997.64386 2565.4562,997.79918 2565.3346,998.08411 2565.3282,998.49863 2565.365,998.97728 2565.5987,999.2686 2566.0292,999.3726 2566.4598,999.47669 2566.8664,999.5183 2567.249,999.49745 2569.642,999.41426 2571.0986,999.77281 2571.6188,1000.5731 2572.139,1001.3735 2572.3471,1003.115 2572.243,1005.7977 z"
         style="fill:#ffffff"
         id="path4795"
         inkscape:connector-curvature="0" />
      <path
         d="M 2624.685,1037.2989 C 2624.789,1039.9848 2624.5809,1041.7391 2624.0607,1042.5619 2623.5405,1043.3846 2622.0838,1043.756 2619.6909,1043.676 2619.2074,1043.6567 2618.7721,1043.6952 2618.3847,1043.7912 2617.9973,1043.8872 2617.7925,1044.1562 2617.7701,1044.5979 2617.7812,1045.0093 2617.9125,1045.2814 2618.1638,1045.4143 2618.4151,1045.5471 2618.7192,1045.608 2619.0762,1045.5968 2620.536,1045.584 2621.9958,1045.5327 2623.4557,1045.4431 2624.9155,1045.3535 2626.3753,1045.3022 2627.8351,1045.2894 2629.2885,1045.3022 2630.7227,1045.3535 2632.1377,1045.4431 2633.5527,1045.5327 2634.9869,1045.584 2636.4404,1045.5968 2636.7972,1045.608 2637.1013,1045.5471 2637.3527,1045.4143 2637.6039,1045.2814 2637.7352,1045.0093 2637.7464,1044.5979 2637.7192,1044.1898 2637.5239,1043.9305 2637.1606,1043.82 2636.7972,1043.7096 2636.429,1043.6615 2636.0561,1043.676 2633.5158,1043.7608 2631.9696,1043.399 2631.4174,1042.5907 2630.8651,1041.7824 2630.6442,1040.0184 2630.7547,1037.2989 L 2630.7547,1003.2622 C 2630.697,1001.5255 2630.8123,1000.4467 2631.1004,1000.0257 2631.3885,999.60474 2632.1953,999.42867 2633.5207,999.49745 L 2638.6684,999.49745 C 2641.5608,999.44788 2643.4976,999.95049 2644.4788,1001.0053 2645.46,1002.0602 2646.3404,1003.965 2647.1199,1006.7197 2647.1887,1006.9662 2647.2816,1007.2031 2647.3985,1007.4304 2647.5153,1007.6577 2647.7042,1007.7794 2647.9651,1007.7953 2648.3732,1007.7794 2648.6325,1007.6385 2648.743,1007.3727 2648.8534,1007.1071 2648.9014,1006.8126 2648.8871,1006.4892 2649.0407,1003.3263 2649.1944,1000.2018 2649.3481,997.11565 2649.3512,996.99405 2649.364,996.81477 2649.3865,996.57783 2649.4089,996.34098 2649.4217,996.08487 2649.4249,995.80951 2649.4313,995.4462 2649.3801,995.11646 2649.2712,994.82029 2649.1624,994.52422 2648.9575,994.36735 2648.6566,994.34969 2648.2868,994.36575 2648.0275,994.50661 2647.8787,994.77227 2647.7298,995.03803 2647.6049,995.33256 2647.5041,995.65584 2647.232,996.50265 2646.7582,997.01806 2646.0827,997.20209 2645.4072,997.38621 2644.3187,997.45984 2642.8173,997.42298 L 2613.5443,997.42298 C 2612.1821,997.39742 2611.3338,997.16052 2610.9992,996.71228 2610.6647,996.26414 2610.4886,995.75833 2610.471,995.19485 2610.471,994.958 2610.4134,994.75951 2610.2981,994.5994 2610.1829,994.43938 2610.01,994.35615 2609.7795,994.34969 2609.445,994.36095 2609.2113,994.473 2609.0784,994.68583 2608.9456,994.89877 2608.8463,995.14528 2608.7807,995.42534 2607.7819,998.71637 2606.7831,1002.0458 2605.7842,1005.4135 2605.6978,1005.6249 2605.6018,1005.913 2605.4961,1006.2779 2605.3905,1006.6429 2605.3328,1006.9694 2605.3232,1007.2575 2605.3216,1007.5313 2605.3825,1007.7521 2605.5057,1007.9202 2605.629,1008.0883 2605.8243,1008.1747 2606.0916,1008.1795 2606.4789,1008.1363 2606.8183,1007.8962 2607.1096,1007.4592 2607.4009,1007.0222 2607.625,1006.6477 2607.7819,1006.3355 2609.6018,1003.1902 2611.5707,1001.2214 2613.6883,1000.429 2615.806,999.63675 2618.9081,999.30061 2622.9946,999.42062 2623.5693,999.39185 2623.995,999.52631 2624.272,999.82399 2624.5489,1000.1218 2624.6865,1000.7556 2624.685,1001.7256 z"
         style="fill:#ffffff"
         id="path4797"
         inkscape:connector-curvature="0" />
      <path
         d="M 2677.097,1037.2989 C 2677.201,1039.9848 2676.9929,1041.7391 2676.4727,1042.5619 2675.9525,1043.3846 2674.4958,1043.756 2672.1029,1043.676 2671.6194,1043.6567 2671.1841,1043.6952 2670.7967,1043.7912 2670.4093,1043.8872 2670.2045,1044.1562 2670.1821,1044.5979 2670.1932,1045.0093 2670.3245,1045.2814 2670.5758,1045.4143 2670.8271,1045.5471 2671.1312,1045.608 2671.4882,1045.5968 2672.948,1045.584 2674.4079,1045.5327 2675.8677,1045.4431 2677.3275,1045.3535 2678.7873,1045.3022 2680.2471,1045.2894 2681.7005,1045.3022 2683.1347,1045.3535 2684.5498,1045.4431 2685.9647,1045.5327 2687.3989,1045.584 2688.8524,1045.5968 2689.2092,1045.608 2689.5133,1045.5471 2689.7647,1045.4143 2690.0159,1045.2814 2690.1472,1045.0093 2690.1584,1044.5979 2690.1312,1044.1898 2689.9359,1043.9305 2689.5726,1043.82 2689.2092,1043.7096 2688.841,1043.6615 2688.4681,1043.676 2685.9278,1043.7608 2684.3816,1043.399 2683.8294,1042.5907 2683.2771,1041.7824 2683.0562,1040.0184 2683.1667,1037.2989 L 2683.1667,1028.6937 C 2683.0994,1026.8641 2683.1955,1025.5484 2683.4548,1024.7464 2683.7141,1023.9445 2684.3095,1022.8785 2685.2412,1021.5483 2688.3913,1016.7975 2691.5414,1012.0852 2694.6915,1007.4112 2695.7799,1005.6697 2697.0605,1003.9474 2698.5331,1002.2442 2700.0057,1000.5411 2701.8241,999.62555 2703.9882,999.49745 2704.4844,999.5167 2704.971,999.47829 2705.448,999.3822 2705.925,999.28621 2706.1811,999.01729 2706.2164,998.57546 2706.1875,998.15773 2705.9954,997.86001 2705.6401,997.68229 2705.2847,997.50466 2704.939,997.41823 2704.6029,997.42298 2703.4136,997.43577 2702.2387,997.48695 2701.0783,997.57653 2699.9178,997.6662 2698.7621,997.71742 2697.6113,997.73018 2696.4523,997.71742 2695.2742,997.6662 2694.077,997.57651 2692.8796,997.48692 2691.7015,997.4357 2690.5427,997.42285 2690.1664,997.41496 2689.7855,997.50783 2689.3997,997.70148 2689.0139,997.89523 2688.8058,998.23777 2688.7754,998.72913 2688.8042,999.06371 2689.0347,999.2782 2689.4669,999.3726 2689.8991,999.46708 2690.3601,999.5087 2690.8499,999.49745 2692.0072,999.45748 2693.0156,999.53751 2693.8752,999.73755 2694.7347,999.93768 2695.1861,1000.4979 2695.2293,1001.4183 2695.1765,1002.2907 2694.6291,1003.5424 2693.5871,1005.1734 2692.545,1006.8046 2691.3253,1008.6517 2689.9279,1010.7149 2688.5881,1012.8071 2687.1379,1015.0576 2685.5773,1017.4666 2684.0166,1019.8756 2683.0082,1021.185 2682.552,1021.3946 2682.0542,1021.1834 2680.9946,1019.858 2679.3731,1017.4186 2677.7516,1014.9792 2676.2502,1012.6934 2674.8688,1010.5613 2673.5835,1008.7093 2672.3125,1006.8622 2671.056,1005.0198 2669.7995,1003.1774 2669.124,1001.8489 2669.0296,1001.0341 2669.0792,1000.3314 2669.4409,999.89286 2670.1148,999.71834 2670.7887,999.54391 2671.477,999.47028 2672.1797,999.49745 2673.0648,999.52151 2673.7339,999.47349 2674.1869,999.35339 2674.6399,999.23339 2674.8672,998.89725 2674.8688,998.34497 2674.8496,998.00407 2674.6959,997.76397 2674.4078,997.62466 2674.1197,997.48545 2673.8124,997.41823 2673.4858,997.42298 2671.7187,997.43577 2669.9516,997.48695 2668.1845,997.57653 2666.4173,997.6662 2664.6502,997.71742 2662.883,997.73018 2661.7305,997.71742 2660.578,997.6662 2659.4256,997.57651 2658.2731,997.48692 2657.1206,997.4357 2655.9681,997.42285 2655.5679,997.41016 2655.2158,997.47422 2654.9117,997.61504 2654.6075,997.75596 2654.4475,998.05049 2654.4315,998.49863 2654.4507,998.94367 2654.6235,999.22538 2654.9501,999.34379 2655.2766,999.46228 2655.6416,999.5135 2656.0449,999.49745 2658.0538,999.42227 2659.5488,999.78402 2660.53,1000.5827 2661.5112,1001.3815 2662.8334,1003.0686 2664.4965,1005.644 2668.0436,1010.8046 2671.5522,1016.0036 2675.0225,1021.241 2675.9156,1022.4815 2676.4919,1023.4771 2676.7512,1024.2278 2677.0105,1024.9785 2677.1257,1026.1086 2677.097,1027.618 z"
         style="fill:#ffffff"
         id="path4799"
         inkscape:connector-curvature="0" />
    </g>
  </g>
</svg>
